<svg width="70" height="70" viewBox="0 0 70 70" fill="none" xmlns="http://www.w3.org/2000/svg">
<g id="Group">
<path id="Vector" d="M66.71 55.0119C69.0703 58.5916 66.5415 63.0122 62.2968 62.7284C62.483 67.1933 58.0254 69.4044 54.6217 67.1061C53.7053 68.9137 52.2614 70.0059 50.2025 70C48.1703 69.9941 46.7323 68.9359 45.8056 67.0973C44.0823 68.2058 42.3013 68.4245 40.51 67.3825C38.7379 66.3524 38.0699 64.7074 38.1512 62.7151C33.7779 62.993 31.3924 58.4851 33.738 55.0415C31.9718 54.1015 30.8604 52.7019 30.8604 50.6209C30.8604 48.5591 31.9289 47.1565 33.7468 46.1973C32.6428 44.4873 32.4078 42.7093 33.4527 40.9195C34.4814 39.1548 36.1027 38.438 38.1453 38.5562C38.0743 36.521 38.7379 34.8731 40.51 33.8474C42.2791 32.8232 44.0379 33.0079 45.7893 34.1356C46.7131 32.331 48.1467 31.2284 50.207 31.2329C52.2407 31.2373 53.6846 32.2793 54.6084 34.1326C56.3346 33.0256 58.1156 32.8069 59.9054 33.843C61.6775 34.8687 62.3411 36.5181 62.2776 38.5015C66.7972 38.3123 68.9772 42.8571 66.6789 46.1899C68.4614 47.127 69.5639 48.5369 69.558 50.6238C69.5536 52.6856 68.4821 54.0882 66.71 55.0119ZM57.7668 44.6144C57.5983 44.3838 57.4742 44.1429 57.2864 43.9715C56.815 43.5399 56.3154 43.1394 55.8262 42.73C54.9646 42.0087 54.802 42.0176 54.094 42.8556C52.7284 44.471 51.3672 46.0894 50.0045 47.7078C47.7077 50.4361 45.4095 53.1615 43.1172 55.8928C42.5673 56.5475 42.594 56.8017 43.2428 57.3619C43.7645 57.8112 44.304 58.2383 44.8213 58.6935C45.3016 59.1177 45.7228 59.1089 46.144 58.6078C49.8789 54.165 53.6196 49.7282 57.353 45.2839C57.5067 45.1007 57.6086 44.8745 57.7668 44.6144ZM41.4722 45.4169C41.4648 47.0959 42.7698 48.4394 44.4281 48.463C46.113 48.4867 47.5082 47.1299 47.5215 45.4568C47.5348 43.7897 46.1411 42.3974 44.4665 42.4063C42.8083 42.4152 41.4796 43.7498 41.4722 45.4169ZM55.9164 58.8162C57.5909 58.8251 58.924 57.52 58.9492 55.8514C58.9743 54.1444 57.6441 52.7713 55.9563 52.7595C54.2876 52.7477 52.8895 54.1444 52.9013 55.81C52.9131 57.458 54.267 58.8073 55.9164 58.8162Z" fill="white"/>
<path id="Vector_2" d="M5.16192 36.4841C5.16192 33.4306 5.18114 30.3756 5.15158 27.3221C5.14123 26.2343 5.51516 25.3875 6.29848 24.6426C11.7389 19.4711 17.1616 14.2805 22.5931 9.10023C23.4193 8.31248 24.176 8.29326 24.9889 9.06772C30.4943 14.313 35.9894 19.5702 41.4978 24.814C42.6255 25.887 42.5738 27.2379 42.3994 28.5917C42.3669 28.8444 41.9338 29.1844 41.6382 29.242C38.434 29.8628 36.1387 31.6038 34.7937 34.6026C34.6607 34.8982 34.2838 35.1007 33.9912 35.3032C33.1842 35.8574 32.3787 36.4161 31.5363 36.9112C31.2141 37.1004 30.7367 37.2822 30.4352 37.1743C30.181 37.0826 29.9534 36.5772 29.9297 36.2387C29.8632 35.2588 29.9209 34.2701 29.8987 33.2843C29.8691 31.9334 29.1804 31.2299 27.834 31.221C25.1529 31.2018 22.4719 31.2018 19.7909 31.221C18.4208 31.2314 17.7261 31.9674 17.7247 33.3522C17.7202 37.4403 17.7247 41.5284 17.7217 45.6179C17.7202 47.6871 16.6546 48.7468 14.5825 48.7482C12.4675 48.7497 10.3511 48.7497 8.2361 48.7482C6.20832 48.7468 5.16488 47.693 5.1634 45.6445C5.16044 42.5925 5.16192 39.5375 5.16192 36.4841ZM24.0977 24.3322C24.1213 24.3928 24.1435 24.4534 24.1671 24.514C24.612 24.344 25.1973 24.2952 25.4722 23.9775C26.0796 23.2769 26.5496 22.4537 27.0388 21.6585C27.3655 21.128 27.2221 20.7067 26.6398 20.4836C24.7731 19.7638 22.8946 19.7608 21.0279 20.4865C20.4441 20.7141 20.3141 21.1235 20.6304 21.6659C20.8905 22.1108 21.2348 22.5099 21.4698 22.9665C21.9975 23.9908 22.6655 24.7017 23.9484 24.3278C23.9957 24.3145 24.0489 24.3292 24.0977 24.3322ZM20.1234 27.7877C20.4545 27.0147 20.7826 26.3363 21.025 25.6284C21.1063 25.3919 21.0516 25.0327 20.92 24.8125C20.4545 24.0336 19.9431 23.2799 19.4229 22.535C19.0474 21.997 18.5848 21.9527 18.1355 22.4153C17.1187 23.4617 16.4492 24.7076 16.1625 26.1383C16.0043 26.9245 16.5763 27.7197 17.3759 27.7729C18.3262 27.8365 19.281 27.7877 20.1234 27.7877ZM27.5369 27.7862C27.5487 27.7877 27.6448 27.8113 27.7394 27.8113C28.4754 27.8143 29.2129 27.8305 29.949 27.8099C31.1047 27.7773 31.7122 27.0191 31.452 25.8929C31.1476 24.5731 30.4988 23.4232 29.5691 22.4419C29.1006 21.9482 28.6217 21.9911 28.2286 22.5571C27.7246 23.2828 27.2088 24.007 26.7817 24.7771C26.6324 25.0461 26.6383 25.4791 26.7329 25.7895C26.9309 26.4353 27.2324 27.0472 27.5369 27.7862ZM25.8239 27.7759C25.7353 26.4959 24.8677 25.7318 23.6691 25.8131C22.6123 25.8841 21.8526 26.7088 21.897 27.7759C23.1872 27.7759 24.479 27.7759 25.8239 27.7759Z" fill="white"/>
<path id="Vector_3" d="M0.442463 22.3724C0.435073 21.4812 0.939061 20.8634 1.53912 20.287C5.31976 16.6556 9.09745 13.0213 12.8751 9.38844C15.7498 6.62463 18.623 3.86231 21.4991 1.10146C23.0258 -0.364687 24.6487 -0.367642 26.1695 1.09555C32.8218 7.4922 39.4712 13.8918 46.1265 20.2855C46.8285 20.9595 47.3872 21.697 47.2069 22.736C47.0621 23.574 46.564 24.18 45.7555 24.4549C44.7801 24.7859 43.8977 24.5258 43.1661 23.8385C41.7488 22.5069 40.358 21.1486 38.9554 19.8022C34.3973 15.4141 29.8393 11.029 25.2783 6.64828C24.1328 5.54719 23.5417 5.54867 22.4007 6.64532C16.5095 12.3059 10.6286 17.9784 4.70936 23.6109C4.22607 24.0721 3.51516 24.4253 2.85894 24.5435C1.57311 24.7756 0.446897 23.6789 0.442463 22.3724Z" fill="white"/>
</g>
</svg>
