<svg width="75" height="74" viewBox="0 0 75 74" fill="none" xmlns="http://www.w3.org/2000/svg">
<g id="Group">
<path id="Vector" d="M72.741 9.86917C72.0037 11.5396 72.741 13.0534 73.9971 14.564C74.8258 15.5608 74.5827 17.1382 73.6399 18.0844C72.5306 19.1969 72.1847 20.3959 72.6007 21.9261C73.0069 23.4187 72.082 24.9978 70.5485 25.4269C69.0363 25.851 68.1571 26.7205 67.7443 28.249C67.3235 29.8118 65.684 30.6699 64.0576 30.2604C62.6922 29.9178 61.5764 30.1886 60.5633 31.1804C59.2746 32.4414 57.4737 32.4382 56.1882 31.1788C55.2013 30.2115 54.105 29.9113 52.7723 30.2408C50.9468 30.6927 49.4232 29.7694 48.9061 27.9374C48.5521 26.683 47.7821 25.8934 46.5065 25.5394C44.6354 25.0223 43.7365 23.4823 44.2128 21.6015C44.5375 20.3176 44.2259 19.2654 43.3254 18.3258C41.9747 16.918 41.9894 15.1954 43.3531 13.7647C44.2275 12.8463 44.5358 11.8104 44.221 10.5576C43.7349 8.61796 44.6174 7.10736 46.544 6.56903C47.7854 6.22157 48.5456 5.44344 48.893 4.22322C49.4477 2.28361 50.9371 1.40109 52.8718 1.88721C54.1344 2.20369 55.2111 1.94593 56.1572 1.02425C57.5569 -0.337885 59.3203 -0.342765 60.7151 1.01774C61.6612 1.94105 62.7362 2.20043 63.9989 1.89211C65.852 1.44024 67.3887 2.3032 67.8993 4.13515C68.2713 5.47118 69.0869 6.25583 70.4148 6.61798C71.8813 7.01765 72.7296 8.15467 72.741 9.86917ZM64.547 8.04863C64.3023 8.21503 63.7852 8.45808 63.4034 8.83818C59.3007 12.9099 55.2209 17.0028 51.1345 21.0892C50.9811 21.2426 50.8229 21.3943 50.694 21.5672C50.1964 22.2409 50.2845 23.1561 50.8865 23.7075C51.4787 24.2491 52.3106 24.2735 52.9534 23.7466C53.309 23.4546 53.6499 23.1414 53.9762 22.8152C57.9304 18.8641 61.8814 14.9115 65.8308 10.954C65.9825 10.8023 66.131 10.6342 66.2354 10.4483C66.8373 9.38466 66.0723 8.06495 64.547 8.04863ZM56.7869 11.2655C56.7853 9.48254 55.3497 8.04374 53.5798 8.0519C51.8098 8.06006 50.3775 9.507 50.3808 11.2802C50.3857 13.0534 51.8277 14.4972 53.5944 14.4939C55.3579 14.4906 56.7885 13.0437 56.7869 11.2655ZM63.1865 24.1251C64.9613 24.1463 66.4165 22.7352 66.4507 20.962C66.485 19.1986 65.0559 17.7369 63.2762 17.7173C61.4965 17.6961 60.0381 19.1072 60.012 20.8739C59.9859 22.6373 61.4165 24.1039 63.1865 24.1251Z" fill="white"/>
<path id="Vector_2" d="M47.4173 48.2276C46.5739 48.2096 45.4108 47.5473 44.3945 46.5245C39.9557 42.0613 35.5055 37.6111 31.057 33.1577C28.7373 30.8347 26.3947 28.5345 24.1028 26.1855C22.3214 24.3601 22.2725 21.5624 23.9168 19.6815C25.5481 17.8153 28.3001 17.4744 30.3229 18.8985C30.6084 19.1008 30.871 19.3422 31.119 19.5901C37.897 26.3568 44.6735 33.1234 51.4466 39.8949C52.9556 41.4039 53.3797 43.4087 52.6016 45.2733C51.8381 47.0971 50.0453 48.2651 47.4173 48.2276Z" fill="#DADCDB"/>
<path id="Vector_3" d="M26.2019 58.0284C22.7452 61.4671 19.3048 65.0103 15.7273 68.4067C13.3081 70.7036 9.4909 70.5388 7.08799 68.2207C5.46811 66.6579 3.8678 65.0723 2.30665 63.4508C0.0146701 61.0707 -0.151708 57.2535 2.11743 54.8767C5.54316 51.2895 9.11733 47.8425 12.5512 44.4152C17.0911 48.9453 21.6147 53.4542 26.2019 58.0284ZM18.7926 58.2062C18.8154 57.2584 18.5104 56.7364 17.8937 56.4444C17.2086 56.1198 16.5642 56.2584 16.0275 56.7902C14.5463 58.2616 13.0651 59.7331 11.6018 61.2224C10.9003 61.937 10.8808 62.9043 11.5088 63.5487C12.1695 64.2273 13.1352 64.2126 13.8905 63.4687C15.3587 62.0218 16.8203 60.5683 18.2542 59.0887C18.5381 58.7983 18.6914 58.3791 18.7926 58.2062ZM6.31639 57.9484C6.70301 58.4362 6.97543 58.9778 7.41262 59.2828C7.9901 59.6858 8.66873 59.5814 9.19401 59.0642C10.6785 57.6042 12.1597 56.1377 13.6213 54.6548C14.3522 53.9142 14.3685 53.0121 13.7209 52.3417C13.0504 51.6467 12.1189 51.6549 11.3506 52.4085C9.91993 53.8098 8.49743 55.2176 7.10267 56.6548C6.80251 56.9631 6.63939 57.4052 6.31639 57.9484Z" fill="#DADCDB"/>
<path id="Vector_4" d="M22.576 29.1968C28.8533 35.5181 35.0408 41.7496 41.1582 47.911C39.0685 48.9502 36.7863 49.9241 34.6754 51.1834C32.5433 52.4558 30.5808 54.0105 28.5874 55.4117C24.1437 50.9681 19.6054 46.4266 15.0166 41.8377C18.3118 38.2244 20.855 34.0058 22.576 29.1968Z" fill="white"/>
<path id="Vector_5" d="M19.8955 68.9369C21.3229 67.4801 22.6834 66.087 24.0504 64.702C24.7943 63.9483 25.5316 63.1882 26.3147 62.4785C26.4941 62.317 26.9117 62.2143 27.1124 62.3105C29.1841 63.3121 31.2624 64.3105 33.2836 65.41C35.3896 66.5535 36.1873 69.082 35.2297 71.2402C34.277 73.3919 31.7632 74.6236 29.6164 73.6774C26.3261 72.2272 23.1434 70.5355 19.8955 68.9369Z" fill="white"/>
</g>
</svg>
