<svg width="82" height="70" viewBox="0 0 82 70" fill="none" xmlns="http://www.w3.org/2000/svg">
<g id="Group">
<path id="Vector" d="M20.9816 4.26041C25.565 3.0866 29.9638 2.11302 34.2625 0.805733C37.0616 -0.0461604 39.6173 0.195278 42.3673 0.980432C51.6478 3.63033 60.9755 6.1173 70.2952 8.6298C71.4848 8.94975 71.9637 9.72509 72.4446 10.7693C73.0276 12.0354 72.898 13.2976 72.9039 14.5754C72.9235 19.2137 72.9118 23.852 72.9118 28.4903C72.9118 28.8475 72.9118 29.2048 72.9118 29.4285C71.3179 29.3775 69.7751 29.2911 68.2323 29.2853C62.744 29.2676 57.2578 29.2951 51.7695 29.2676C50.4249 29.2617 49.4003 29.7387 48.5327 30.7633C45.4294 34.4261 42.2868 38.0554 39.1678 41.7044C37.7741 43.3356 37.7525 44.8608 39.0893 46.5567C41.7392 49.9132 44.3989 53.2619 47.1116 56.6852C46.8741 56.8403 46.6817 56.9953 46.4658 57.1033C44.3145 58.1966 42.171 59.3115 39.9981 60.3597C38.9047 60.8877 37.7957 61.0526 36.5414 60.6286C25.2705 56.8226 13.982 53.0715 2.69734 49.3047C1.023 48.7453 0.387032 47.8816 0.387032 46.119C0.383106 34.6537 0.385069 23.1905 0.387032 11.7253C0.387032 10.2884 1.30174 9.08126 2.70324 8.71616C4.84867 8.16067 6.99802 7.62088 9.15916 7.12623C9.57529 7.03005 10.066 7.085 10.4822 7.2067C24.1831 11.2385 37.8762 15.2918 51.5771 19.3177C52.3093 19.5336 52.6391 19.8065 52.5998 20.6446C52.5193 22.4053 52.5625 24.1719 52.5802 25.9346C52.5979 27.7817 53.8129 29.0772 55.497 29.0733C57.1792 29.0693 58.3923 27.7758 58.4041 25.9228C58.4217 23.2769 58.41 20.6309 58.408 17.9849C58.406 15.8493 57.7583 14.9837 55.7012 14.383C44.4617 11.1128 33.2242 7.84268 21.9847 4.57251C21.7334 4.49989 21.4881 4.4194 20.9816 4.26041Z" fill="white"/>
<path id="Vector_2" d="M61.3166 31.9901C64.1255 31.9901 66.9344 32.0077 69.7433 31.9802C70.8405 31.9704 71.6846 32.3689 72.3892 33.2012C75.151 36.4674 77.9383 39.714 80.706 42.9763C81.8955 44.3798 81.921 45.6832 80.7629 47.1318C75.1137 54.1962 69.4606 61.2567 63.7957 68.3074C62.2647 70.2114 60.3077 70.2016 58.7805 68.2976C53.1392 61.2685 47.5057 54.2335 41.8762 47.1965C40.5924 45.5929 40.616 44.3975 41.9547 42.8193C44.6811 39.608 47.4252 36.4105 50.1438 33.1933C50.8485 32.361 51.6945 31.9685 52.7918 31.9802C55.6321 32.0077 58.4743 31.9901 61.3166 31.9901ZM66.212 45.1846C64.7654 46.9845 63.3541 48.6923 61.9977 50.4451C60.6963 52.1254 61.4049 54.4259 63.3678 55.0481C64.5652 55.4269 65.6997 55.0402 66.638 53.8782C68.4399 51.6464 70.2261 49.4009 72.0143 47.1553C73.192 45.6773 73.2078 44.3975 72.0182 42.9096C71.1624 41.8398 70.2772 40.7936 69.3664 39.7709C68.2338 38.497 66.4966 38.3596 65.2463 39.4019C63.9979 40.4423 63.8212 42.1676 64.8478 43.5181C65.262 44.0598 65.7095 44.5741 66.212 45.1846Z" fill="white"/>
</g>
</svg>
