<svg width="52" height="68" viewBox="0 0 52 68" fill="none" xmlns="http://www.w3.org/2000/svg">
<g id="Group">
<path id="Vector" d="M18.2145 35.1533C19.2133 33.414 20.0509 31.7419 21.0905 30.2061C22.2365 28.5105 22.6983 26.7414 22.5574 24.703C22.4259 22.7836 22.5292 20.8486 22.5277 18.9213C22.5277 18.7131 22.5449 18.4986 22.5042 18.2982C22.4009 17.8019 22.0674 17.434 21.5774 17.5843C21.2658 17.6798 20.9104 18.0696 20.8337 18.3906C20.71 18.9025 20.8008 19.4661 20.8008 20.0532C17.8121 20.0532 14.9079 20.0532 11.913 20.0532C11.913 19.3753 11.8973 18.7068 11.9177 18.0399C11.938 17.3917 12.4453 17.2712 12.9431 17.171C15.6485 16.6309 18.3523 16.0907 21.0592 15.5616C22.4431 15.2907 22.5292 15.1968 22.5308 13.7752C22.5324 10.4656 22.5167 7.15747 22.5402 3.84782C22.5527 2.15385 23.7848 0.763604 25.3943 0.538159C27.118 0.295493 28.6804 1.22702 29.1752 2.85367C29.3239 3.34213 29.3583 3.87913 29.3599 4.39421C29.3756 7.62558 29.3662 10.8554 29.3693 14.0868C29.3709 15.142 29.4742 15.2751 30.5184 15.488C33.2473 16.0422 35.9761 16.5886 38.708 17.1303C39.8775 17.362 39.9746 17.4669 39.9887 18.6708C39.9934 19.1108 39.9887 19.5491 39.9887 20.0423C37.0344 20.0423 34.1334 20.0423 31.1071 20.0423C31.1071 19.5444 31.1196 19.0356 31.104 18.5284C31.0867 17.9632 30.8441 17.553 30.2241 17.5561C29.5963 17.5593 29.3724 17.9773 29.3709 18.544C29.3677 21.4623 29.3568 24.3805 29.385 27.2988C29.3881 27.637 29.565 27.9986 29.7403 28.3055C31.0163 30.5427 32.3126 32.769 33.6966 35.1612C33.3162 35.0438 33.0688 34.978 32.8277 34.8919C30.7971 34.1608 28.7775 33.3952 26.7297 32.7142C26.26 32.5576 25.6495 32.5529 25.1798 32.7095C23.1085 33.3999 21.0638 34.1749 19.0098 34.9154C18.7969 34.9905 18.5761 35.0453 18.2145 35.1533ZM24.6866 8.92815C25.28 8.96416 25.8045 8.50388 25.853 7.90583C25.9047 7.27333 25.4303 6.71441 24.8119 6.67684C24.2326 6.64083 23.6925 7.11364 23.6439 7.70386C23.5891 8.34262 24.0572 8.89058 24.6866 8.92815ZM24.7805 11.8276C24.195 11.8104 23.6768 12.2895 23.6424 12.8844C23.6048 13.5279 24.0807 14.0523 24.7179 14.0696C25.327 14.0868 25.8217 13.6312 25.8545 13.0237C25.8905 12.3912 25.4021 11.8464 24.7805 11.8276ZM24.7305 16.98C24.1089 16.9925 23.6126 17.5311 23.6408 18.1604C23.669 18.771 24.1512 19.2203 24.768 19.2109C25.4146 19.2 25.8859 18.6927 25.8545 18.043C25.8279 17.445 25.3238 16.969 24.7305 16.98ZM24.7445 22.1323C24.1183 22.1355 23.6189 22.6646 23.6408 23.2971C23.6627 23.9093 24.1371 24.3617 24.7571 24.3586C25.4084 24.3555 25.8812 23.8592 25.8577 23.2063C25.8342 22.6036 25.3426 22.1292 24.7445 22.1323Z" fill="white"/>
<path id="Vector_2" d="M34.4277 32.6359C37.836 34.3596 41.2459 36.0849 44.7669 37.8665C44.078 38.1765 43.4956 38.4458 42.907 38.7026C37.4932 41.0541 32.0762 43.3978 26.6687 45.7634C26.2037 45.9669 25.8295 45.9779 25.3552 45.7712C19.5656 43.2396 13.7666 40.7316 7.97084 38.2172C7.74069 38.117 7.51838 37.998 7.20996 37.8477C10.7278 36.0223 14.1565 34.2438 17.5867 32.4637C17.6211 32.4966 17.6556 32.5294 17.6916 32.5607C17.4254 33.0195 17.1702 33.4844 16.8916 33.9353C16.353 34.8089 16.3514 35.562 16.9041 36.2461C17.4333 36.9021 18.144 37.0603 19.0771 36.7237C21.1312 35.9831 23.1759 35.2144 25.2456 34.5177C25.6698 34.3753 26.2256 34.3768 26.6499 34.5209C28.7431 35.2269 30.8128 36.005 32.8919 36.7534C33.7561 37.0634 34.4732 36.8849 34.9929 36.243C35.497 35.6215 35.5331 34.8089 35.09 34.059C34.8285 33.6175 34.5671 33.1776 34.3056 32.7361C34.3463 32.7048 34.387 32.6703 34.4277 32.6359ZM26.4855 42.0639C26.4839 42.0639 26.4839 42.0639 26.4824 42.0639C26.4824 41.6474 26.4996 41.231 26.4777 40.8161C26.4511 40.2885 26.1035 39.93 25.6307 40.0177C25.3097 40.0771 24.8479 40.4685 24.8103 40.7582C24.6992 41.6005 24.6898 42.4788 24.8088 43.3195C24.851 43.6216 25.3458 44.0256 25.6824 44.0788C26.152 44.1524 26.4745 43.7641 26.4824 43.2334C26.4902 42.8435 26.4855 42.4537 26.4855 42.0639ZM30.7095 38.8936C30.711 38.8936 30.711 38.8936 30.7126 38.8936C30.7126 38.5037 30.7204 38.1155 30.711 37.7256C30.6985 37.2043 30.3901 36.8035 29.9141 36.8802C29.5775 36.935 29.0891 37.3311 29.0374 37.6364C28.9122 38.3941 28.9576 39.1895 29.0139 39.9629C29.0499 40.4576 29.4272 40.8333 29.9157 40.694C30.2288 40.6048 30.5341 40.2196 30.6813 39.894C30.8112 39.6137 30.7095 39.2317 30.7095 38.8936ZM22.2975 39.4603C22.2975 39.1503 22.3101 38.8388 22.2944 38.5303C22.2694 38.0137 21.9516 37.6192 21.4787 37.7053C21.1437 37.7663 20.685 38.1624 20.6177 38.4802C20.483 39.1237 20.483 39.8345 20.6145 40.4795C20.6803 40.802 21.1234 41.2091 21.4584 41.2764C21.9265 41.3719 22.2584 40.9868 22.2897 40.4685C22.3132 40.1335 22.296 39.7969 22.2975 39.4603Z" fill="white"/>
<path id="Vector_3" d="M0.515625 46.5352C2.20803 44.0037 3.83937 41.5629 5.52551 39.0408C11.8724 41.7962 18.2005 44.5438 24.5803 47.3149C22.9177 49.8105 21.3035 52.2293 19.6675 54.6841C13.2924 51.971 6.95959 49.2766 0.515625 46.5352Z" fill="#DADCDB"/>
<path id="Vector_4" d="M32.3343 54.6904C30.6936 52.2293 29.081 49.8104 27.4199 47.3211C33.7825 44.5579 40.0934 41.8165 46.4716 39.047C48.1327 41.53 49.7766 43.9864 51.4846 46.5399C45.0704 49.2687 38.7219 51.9709 32.3343 54.6904Z" fill="#DADCDB"/>
<path id="Vector_5" d="M26.9082 67.5C26.9082 61.5585 26.9082 55.7627 26.9082 49.801C27.1352 50.089 27.2824 50.2503 27.4013 50.4288C28.5724 52.1807 29.7403 53.9341 30.9098 55.6876C31.6472 56.7929 31.7412 56.8258 32.9279 56.3216C36.9702 54.6058 41.011 52.8852 45.0534 51.1677C45.2866 51.0691 45.5262 50.9814 45.8972 50.8374C45.8972 51.9818 45.9051 53.0339 45.8941 54.086C45.8847 54.9674 46.1336 56.007 45.7516 56.6864C45.39 57.3315 44.3661 57.6133 43.6224 58.036C38.3088 61.0544 32.9936 64.0666 27.6785 67.0804C27.4577 67.2072 27.2323 67.323 26.9082 67.5Z" fill="white"/>
<path id="Vector_6" d="M6.09838 50.8014C8.42798 51.7909 10.6026 52.713 12.7756 53.6367C14.9549 54.562 17.142 55.4685 19.3057 56.4282C20.0509 56.7585 20.5081 56.5894 20.937 55.9287C22.1128 54.1158 23.3261 52.3279 24.5285 50.5306C24.6663 50.3239 24.8197 50.1251 25.0671 49.7822C25.0671 55.7675 25.0671 61.5743 25.0671 67.4609C24.7821 67.3137 24.5535 67.2072 24.3328 67.082C18.49 63.7708 12.6535 60.4502 6.80133 57.1546C6.28781 56.865 6.06237 56.5675 6.08116 55.9506C6.13126 54.288 6.09838 52.6222 6.09838 50.8014Z" fill="white"/>
<path id="Vector_7" d="M16.1546 31.2472C13.205 32.7815 10.1912 34.2077 7.32935 35.8923C5.62129 36.899 3.96646 37.0759 2.13942 36.6219C2.09871 36.6109 2.0674 36.5624 1.96094 36.4716C2.20517 36.3479 2.41497 36.2305 2.63572 36.1334C6.2444 34.5224 9.83743 32.8723 13.479 31.3349C14.2665 31.003 15.2262 31.0812 16.1076 30.9701C16.1217 31.0625 16.1389 31.1548 16.1546 31.2472Z" fill="#DADCDB"/>
<path id="Vector_8" d="M49.0366 36.578C47.77 36.7424 46.7524 37.0007 45.6032 36.3792C42.3578 34.6226 39.0293 33.0163 35.751 31.1674C36.3068 31.2143 36.9236 31.1204 37.4089 31.3302C41.1789 32.9615 44.9238 34.6508 48.6749 36.3244C48.7563 36.3604 48.8237 36.4277 49.0366 36.578Z" fill="#DADCDB"/>
</g>
</svg>
