<svg width="106" height="22" viewBox="0 0 106 22" fill="none" xmlns="http://www.w3.org/2000/svg">
<g id="Group 3">
<path id="Icon" d="M93.6655 3.16038C93.9798 2.193 95.3484 2.193 95.6627 3.16038L96.7857 6.61676C96.9263 7.04939 97.3294 7.3423 97.7843 7.3423H101.419C102.436 7.3423 102.859 8.64389 102.036 9.24176L99.0956 11.3779C98.7276 11.6453 98.5736 12.1192 98.7142 12.5519L99.8372 16.0082C100.152 16.9756 99.0443 17.7801 98.2214 17.1822L95.2812 15.046C94.9132 14.7786 94.4149 14.7786 94.0469 15.046L91.1067 17.1822C90.2838 17.7801 89.1766 16.9756 89.4909 16.0083L90.614 12.5519C90.7545 12.1192 90.6006 11.6453 90.2325 11.3779L87.2924 9.24177C86.4695 8.64389 86.8924 7.3423 87.9095 7.3423H91.5438C91.9987 7.3423 92.4018 7.04939 92.5424 6.61676L93.6655 3.16038Z" fill="#F7AC14"/>
<path id="Icon_2" d="M72.6655 3.16038C72.9798 2.193 74.3484 2.193 74.6627 3.16038L75.7857 6.61676C75.9263 7.04939 76.3294 7.3423 76.7843 7.3423H80.4186C81.4357 7.3423 81.8587 8.64389 81.0358 9.24176L78.0956 11.3779C77.7276 11.6453 77.5736 12.1192 77.7142 12.5519L78.8372 16.0082C79.1515 16.9756 78.0443 17.7801 77.2214 17.1822L74.2812 15.046C73.9132 14.7786 73.4149 14.7786 73.0469 15.046L70.1067 17.1822C69.2838 17.7801 68.1766 16.9756 68.4909 16.0083L69.614 12.5519C69.7545 12.1192 69.6006 11.6453 69.2325 11.3779L66.2924 9.24177C65.4695 8.64389 65.8924 7.3423 66.9095 7.3423H70.5438C70.9987 7.3423 71.4018 7.04939 71.5424 6.61676L72.6655 3.16038Z" fill="#F7AC14"/>
<path id="Icon_3" d="M51.6655 3.16038C51.9798 2.193 53.3484 2.193 53.6627 3.16038L54.7857 6.61676C54.9263 7.04939 55.3294 7.3423 55.7843 7.3423H59.4186C60.4357 7.3423 60.8587 8.64389 60.0358 9.24176L57.0956 11.3779C56.7276 11.6453 56.5736 12.1192 56.7142 12.5519L57.8372 16.0082C58.1515 16.9756 57.0443 17.7801 56.2214 17.1822L53.2812 15.046C52.9132 14.7786 52.4149 14.7786 52.0469 15.046L49.1067 17.1822C48.2838 17.7801 47.1766 16.9756 47.4909 16.0083L48.614 12.5519C48.7545 12.1192 48.6006 11.6453 48.2325 11.3779L45.2924 9.24177C44.4695 8.64389 44.8924 7.3423 45.9095 7.3423H49.5438C49.9987 7.3423 50.4018 7.04939 50.5424 6.61676L51.6655 3.16038Z" fill="#F7AC14"/>
<path id="Icon_4" d="M30.6655 3.16038C30.9798 2.193 32.3484 2.193 32.6627 3.16038L33.7857 6.61676C33.9263 7.04939 34.3294 7.3423 34.7843 7.3423H38.4186C39.4357 7.3423 39.8587 8.64389 39.0358 9.24176L36.0956 11.3779C35.7276 11.6453 35.5736 12.1192 35.7142 12.5519L36.8372 16.0082C37.1515 16.9756 36.0443 17.7801 35.2214 17.1822L32.2812 15.046C31.9132 14.7786 31.4149 14.7786 31.0469 15.046L28.1067 17.1822C27.2838 17.7801 26.1766 16.9756 26.4909 16.0083L27.614 12.5519C27.7545 12.1192 27.6006 11.6453 27.2325 11.3779L24.2924 9.24177C23.4695 8.64389 23.8924 7.3423 24.9095 7.3423H28.5438C28.9987 7.3423 29.4018 7.04939 29.5424 6.61676L30.6655 3.16038Z" fill="#F7AC14"/>
<path id="Icon_5" d="M9.66545 3.16038C9.97977 2.193 11.3484 2.193 11.6627 3.16038L12.7857 6.61676C12.9263 7.04939 13.3294 7.3423 13.7843 7.3423H17.4186C18.4357 7.3423 18.8587 8.64389 18.0358 9.24176L15.0956 11.3779C14.7276 11.6453 14.5736 12.1192 14.7142 12.5519L15.8372 16.0082C16.1515 16.9756 15.0443 17.7801 14.2214 17.1822L11.2812 15.046C10.9132 14.7786 10.4149 14.7786 10.0469 15.046L7.10671 17.1822C6.28381 17.7801 5.17661 16.9756 5.49093 16.0083L6.61397 12.5519C6.75454 12.1192 6.60055 11.6453 6.23254 11.3779L3.29236 9.24177C2.46946 8.64389 2.89238 7.3423 3.90954 7.3423H7.5438C7.99868 7.3423 8.40184 7.04939 8.54241 6.61676L9.66545 3.16038Z" fill="#F7AC14"/>
</g>
</svg>
