<svg width="195" height="43" viewBox="0 0 195 43" fill="none" xmlns="http://www.w3.org/2000/svg">
<g id="Group 6">
<g id="Group">
<path id="Vector" d="M189.409 8.55855H187.203C186.647 3.90324 182.675 0.281128 177.873 0.281128C173.071 0.281128 169.099 3.90324 168.544 8.55855H166.338C163.458 8.55855 161.124 10.8926 161.124 13.7726V36.8433C161.124 39.7234 163.458 42.0574 166.338 42.0574H189.409C192.289 42.0574 194.623 39.7234 194.623 36.8433V13.7726C194.622 10.8926 192.288 8.55855 189.409 8.55855ZM177.873 0.526196C182.54 0.526196 186.402 4.03851 186.956 8.55855H168.791C169.344 4.03851 173.206 0.526196 177.873 0.526196Z" fill="#FF742F"/>
<g id="Group_2">
<path id="Vector_2" d="M173.074 23.6792C173.677 23.8389 174.058 24.186 174.483 24.9712C174.511 25.0221 174.581 25.0241 174.614 24.977C175.016 24.3928 175.506 23.8733 175.592 23.1155C175.613 22.9322 175.713 22.7577 175.818 22.5891C175.858 22.5264 175.955 22.5499 175.961 22.6234C176.069 24.0281 174.801 26.1779 173.126 27.4042C173.072 27.4434 172.997 27.4022 173.003 27.3366C173.009 27.264 173.016 27.2052 173.042 27.1572C173.176 26.918 173.308 26.6719 173.481 26.4622C173.785 26.0955 173.766 25.7152 173.572 25.327C173.379 24.9437 173.087 24.6555 172.684 24.4781C172.439 24.3693 172.212 24.2213 171.933 24.0674C171.976 24.0556 171.944 24.0546 171.936 24.0683C171.096 25.3339 169.862 26.2504 168.955 27.4601C168.722 27.7708 168.358 27.9826 168.045 28.2335C168.02 28.2531 167.985 28.2512 167.963 28.2286L167.944 28.208C167.923 28.1865 167.921 28.1531 167.939 28.1286C168.009 28.0365 168.075 27.9414 168.153 27.8571C168.971 26.9582 169.781 26.0524 170.615 25.1682C171.03 24.729 171.439 24.2948 171.766 23.7811C171.877 23.6076 172.171 23.5409 172.26 23.3645C172.414 23.0626 172.511 22.7312 172.618 22.4058C172.641 22.3352 172.561 22.2754 172.501 22.3195C172.326 22.447 172.069 22.6665 171.944 22.8175C171.473 23.388 171.013 23.9693 170.539 24.5379C170.402 24.7016 170.257 24.8918 170.074 24.9751C169.386 25.2858 168.92 25.8485 168.401 26.3553C167.987 26.7582 167.566 27.1542 166.995 27.4699C166.92 27.511 166.844 27.4169 166.899 27.3522C166.901 27.3493 166.903 27.3473 166.906 27.3454C167.37 26.8494 167.857 26.372 168.301 25.8583C168.943 25.1182 168.979 24.2605 168.698 23.3645C168.678 23.3008 168.638 23.2439 168.59 23.1684C168.562 23.1253 168.502 23.1204 168.467 23.1577C167.616 24.0909 166.88 25.1084 165.749 25.8299C165.674 25.8779 165.591 25.7789 165.652 25.7132L165.653 25.7122C166.462 24.8525 167.277 24.0007 168.08 23.1361C168.333 22.8646 168.568 22.6273 168.993 22.7538C169.081 22.7803 169.251 22.6675 169.328 22.5744C169.539 22.3166 169.727 22.0382 169.911 21.7598C170.047 21.5539 170.167 21.5628 170.338 21.7245C170.699 22.0676 171.074 22.397 171.459 22.744C171.491 22.7724 171.541 22.7705 171.57 22.7381C171.832 22.443 172.069 22.1617 172.323 21.897C172.678 21.5265 172.728 21.5304 173.108 21.8637C173.204 21.948 173.298 22.0333 173.407 22.1323C173.443 22.1656 173.502 22.1558 173.526 22.1127C173.926 21.4049 174.317 20.708 174.718 20.0159C175.059 19.4267 175.408 18.8425 175.762 18.2612C175.962 17.9308 176.045 17.9279 176.255 18.2641C177.184 19.7532 178.104 21.2471 179.03 22.7381C179.088 22.8312 179.153 22.9204 179.234 23.0351C179.258 23.0694 179.306 23.0783 179.34 23.0537C179.861 22.691 180.377 22.3519 180.864 21.9764C181.142 21.7618 181.336 21.7686 181.555 22.0382C181.863 22.4185 182.197 22.7783 182.5 23.1616C182.638 23.3361 182.778 23.4527 183.009 23.4076C183.643 23.2861 184.12 23.5351 184.572 23.9742C185.591 24.9633 186.626 25.9377 187.689 26.8778C188.324 27.4375 189.027 27.9188 189.695 28.4404C189.837 28.5511 189.966 28.6795 190.098 28.8021C190.12 28.8217 190.124 28.853 190.11 28.8776L190.107 28.8815C190.092 28.907 190.062 28.9177 190.034 28.9079C189.94 28.8736 189.839 28.8472 189.762 28.7903C188.637 27.962 187.347 27.564 185.994 27.3336C185.714 27.2856 185.533 27.1474 185.488 26.8611C185.308 25.7201 184.633 24.8506 183.89 24.0379C183.741 23.8752 183.418 23.8723 183.159 23.8115C183.125 23.8037 183.091 23.8174 183.074 23.8468L183.057 23.8762C183.042 23.9017 183.043 23.9331 183.059 23.9576C183.121 24.0556 183.178 24.1595 183.258 24.2409C183.466 24.4546 183.713 24.634 183.9 24.8633C184.114 25.127 184.371 25.4054 184.453 25.7191C184.717 26.7357 185.308 27.5757 185.82 28.4609C185.868 28.5433 185.927 28.6188 185.977 28.7001C185.987 28.7158 185.978 28.7423 185.978 28.8579C185.775 28.6991 185.601 28.5894 185.459 28.4462C185.023 28.0041 184.603 27.5473 184.171 27.1013C183.664 26.5788 183.16 26.0563 182.64 25.5466C182.324 25.2368 182.123 24.8849 182.001 24.4536C181.807 23.7674 181.553 23.0969 181.304 22.3705C181.287 22.3215 181.229 22.3029 181.186 22.3323C180.623 22.7234 180.13 23.0655 179.625 23.4164C179.589 23.441 179.581 23.491 179.606 23.5253C179.835 23.8301 180.101 24.0076 180.473 24.0674C180.669 24.0987 180.927 24.1938 181.02 24.3448C181.55 25.2074 182.34 25.8279 183.004 26.5651C183.931 27.5944 184.837 28.6423 185.781 29.6559C186.186 30.0901 186.67 30.4509 187.108 30.8557C187.292 31.0263 187.455 31.2204 187.627 31.4057C187.646 31.4272 187.648 31.4596 187.632 31.4831L187.625 31.4919C187.61 31.5125 187.585 31.5213 187.56 31.5155C187.503 31.5008 187.444 31.489 187.4 31.4566C186.484 30.7881 185.563 30.1411 184.464 29.7745C184.144 29.6677 183.849 29.3549 183.641 29.0648C183.159 28.3913 182.598 27.8326 181.857 27.4483C181.397 27.2101 181.141 26.8004 181.021 26.2975C180.887 25.7436 180.744 25.1917 180.588 24.6438C180.567 24.5683 180.455 24.482 180.373 24.4663C179.53 24.3065 178.888 23.8517 178.385 23.1684C178.31 23.0665 178.212 22.9812 178.1 22.8822C178.048 22.8351 177.963 22.8793 177.973 22.9498C178.135 24.1448 178.257 25.2731 179.072 26.2141C179.55 26.767 179.881 27.4493 180.275 28.0757C180.319 28.1463 180.349 28.2257 180.384 28.3031C180.394 28.3276 180.388 28.356 180.368 28.3737C180.345 28.3933 180.313 28.3933 180.289 28.3757C179.774 27.9679 179.287 27.516 178.732 27.1699C177.427 26.3563 176.997 25.0114 176.507 23.6939C176.454 23.5517 176.437 23.3939 176.42 23.241C176.357 22.6744 176.301 22.1078 176.24 21.5412C176.235 21.4941 176.239 21.4334 176.211 21.402C175.769 20.8922 176.017 20.3158 176.039 19.7581C176.045 19.6032 176.039 19.4483 176.029 19.2924C176.022 19.1846 175.885 19.1444 175.821 19.2307C175.163 20.1345 173.031 23.5655 173.031 23.5655C173.002 23.6096 173.025 23.6664 173.074 23.6792ZM169.212 23.3086C169.397 23.6262 169.604 23.985 169.827 24.3693C169.859 24.4252 169.942 24.4183 169.965 24.3585C170.247 23.6556 170.269 22.9714 170.128 22.2264C170.115 22.1607 170.031 22.1401 169.991 22.194C169.714 22.5617 169.468 22.89 169.217 23.2243C169.2 23.2488 169.197 23.2822 169.212 23.3086Z" fill="white"/>
</g>
</g>
<g id="Group 4">
<g id="Group_3">
<g id="Group_4">
<path id="Vector_3" d="M0.5 16.862L3.94889 12.5106H19.1457L17.5917 16.862H9.54378V21.2134H15.729L14.1751 25.5648H9.54378V29.9162H20.0787L18.5248 34.2676H3.94889V16.862H0.5Z" fill="white"/>
<path id="Vector_4" d="M24.4303 16.862H20.9814L22.8764 12.5106H28.5646L33.5063 26.3096L38.4159 12.5106H44.1024L36.3326 34.2659H30.6461L24.4303 16.862Z" fill="white"/>
<path id="Vector_5" d="M45.7207 16.862L49.1696 12.5106H64.3664L62.8125 16.862H54.7628V21.2134H60.9481L59.3941 25.5648H54.7628V29.9162H65.2978L63.7438 34.2676H49.1679V16.862H45.7207Z" fill="white"/>
<path id="Vector_6" d="M78.196 26.0296H75.8651V34.2659H70.2702V16.862H66.8213L70.2702 12.5106H80.1215C85.6841 12.5106 87.7674 14.8721 87.7674 19.4729C87.7674 22.3636 86.0896 24.2908 83.913 25.2544L89.7861 38.9295L82.6373 36.4425L78.196 26.0296ZM78.4437 21.6782C80.7118 21.6782 82.0181 21.2423 82.0181 19.254C82.0181 17.2963 80.8374 16.8603 78.5997 16.8603H75.8651V21.6782H78.4437Z" fill="white"/>
<path id="Vector_7" d="M91.251 16.862L94.6999 12.5106H109.897L108.344 16.862H100.295V21.2134H106.48L104.926 25.5648H100.295V29.9162H110.83L109.276 34.2676H94.6999V16.862H91.251Z" fill="white"/>
<path id="Vector_8" d="M116.424 28.3607C118.725 29.728 120.092 30.2251 122.267 30.2251C123.821 30.2251 125.499 29.6347 125.499 28.5473C125.499 27.5531 123.541 26.8067 121.18 25.967C116.891 24.4436 114.684 23.0457 114.684 18.8198C114.684 13.7847 118.445 12.0442 122.734 12.0442C125.375 12.0442 128.079 12.8212 130.503 14.4684L128.235 18.4161C125.841 17.0487 124.413 16.5517 122.703 16.5517C120.589 16.5517 119.812 17.4847 119.812 18.3228C119.812 19.7206 122.019 20.3432 124.381 21.1507C127.862 22.3315 130.627 23.2951 130.627 27.8636C130.627 32.7748 127.053 34.7325 122.454 34.7325C119.19 34.7325 116.518 33.925 114.156 32.2778L116.424 28.3607Z" fill="white"/>
<path id="Vector_9" d="M153.064 12.5106L151.51 16.862H145.977V36.4408L140.383 38.9278V16.862H133.017L136.469 12.5106H153.064Z" fill="white"/>
</g>
</g>
</g>
</g>
</svg>
