<svg width="256" height="74" viewBox="0 0 256 74" fill="none" xmlns="http://www.w3.org/2000/svg">
<g id="Group 5">
<g id="Group">
<g id="Group_2">
<path id="Vector" d="M0.331055 8.06317L6.10323 0.780518H31.5372L28.9364 8.06317H15.4671V15.3458H25.8189L23.2182 22.6285H15.4671V29.9111H33.0988L30.498 37.1938H6.10323V8.06317H0.331055Z" fill="#717171"/>
<path id="Vector_2" d="M40.3816 8.06318H34.6094L37.7808 0.780518H47.3008L55.5715 23.8749L63.7883 0.780518H73.3054L60.3017 37.191H50.7845L40.3816 8.06318Z" fill="#717171"/>
<path id="Vector_3" d="M76.0107 8.06317L81.7829 0.780518H107.217L104.616 8.06317H91.1439V15.3458H101.496L98.895 22.6285H91.1439V29.9111H108.776L106.175 37.1938H81.7801V8.06317H76.0107Z" fill="#717171"/>
<path id="Vector_4" d="M130.368 23.4064H126.467V37.191H117.103V8.06317H111.331L117.103 0.780518H133.591C142.901 0.780518 146.387 4.73274 146.387 12.4328C146.387 17.2708 143.579 20.4962 139.936 22.1089L149.766 44.996L137.801 40.8337L130.368 23.4064ZM130.783 16.1238C134.579 16.1238 136.765 15.3941 136.765 12.0665C136.765 8.79002 134.789 8.06034 131.044 8.06034H126.467V16.1238H130.783Z" fill="#717171"/>
<path id="Vector_5" d="M152.213 8.06317L157.985 0.780518H183.419L180.821 8.06317H167.349V15.3458H177.701L175.1 22.6285H167.349V29.9111H184.981L182.38 37.1938H157.985V8.06317H152.213Z" fill="#717171"/>
<path id="Vector_6" d="M194.345 27.3078C198.195 29.5963 200.483 30.4282 204.123 30.4282C206.724 30.4282 209.532 29.4401 209.532 27.6202C209.532 25.9564 206.256 24.7071 202.303 23.3017C195.126 20.752 191.432 18.4125 191.432 11.3399C191.432 2.91306 197.726 0 204.904 0C209.325 0 213.85 1.30037 217.908 4.05728L214.112 10.6642C210.106 8.37577 207.715 7.54387 204.853 7.54387C201.315 7.54387 200.015 9.10545 200.015 10.508C200.015 12.8476 203.709 13.8896 207.661 15.2411C213.487 17.2172 218.115 18.8299 218.115 26.4759C218.115 34.6955 212.133 37.972 204.436 37.972C198.973 37.972 194.501 36.6205 190.549 33.8636L194.345 27.3078Z" fill="#717171"/>
<path id="Vector_7" d="M255.669 0.780518L253.068 8.06317H243.809V40.8309L234.445 44.9932V8.06317H222.117L227.895 0.780518H255.669Z" fill="#717171"/>
</g>
</g>
<g id="Group_3">
<g id="Group_4">
<path id="Vector_8" d="M8.97041 70.8905C8.97041 70.9331 8.95905 70.9728 8.93918 71.0069C8.91646 71.041 8.88523 71.0608 8.84264 71.0694C8.72339 71.0864 8.56156 71.0977 8.35713 71.1006C8.15271 71.1034 7.93408 71.1119 7.69843 71.1205C7.46277 71.129 7.22711 71.1318 6.98862 71.1318C6.75012 71.1318 6.53718 71.1318 6.34979 71.1318C5.44691 71.1318 4.76833 70.9501 4.31121 70.5838C3.85693 70.2176 3.62695 69.61 3.62695 68.7582V63.8406C3.62695 62.9889 3.85409 62.3813 4.31121 62.015C4.76549 61.6488 5.44691 61.467 6.34979 61.467C6.53718 61.467 6.74728 61.4699 6.98294 61.4727C7.21576 61.4784 7.44857 61.4812 7.67855 61.4841C7.90853 61.4898 8.12431 61.4983 8.32874 61.5096C8.53316 61.521 8.70352 61.5323 8.8398 61.5409C8.88239 61.5494 8.91362 61.5721 8.93634 61.6033C8.95621 61.6374 8.96757 61.6743 8.96757 61.7197V62.3586C8.96757 62.4608 8.9193 62.5119 8.82561 62.5119H6.36114C6.02043 62.5119 5.74787 62.5346 5.54344 62.5829C5.33902 62.6311 5.18286 62.7078 5.07213 62.8128C4.9614 62.9207 4.88758 63.057 4.84783 63.2274C4.80808 63.3977 4.79104 63.6022 4.79104 63.8406V65.6152H8.71204C8.78018 65.6152 8.8398 65.6407 8.89091 65.6918C8.94202 65.7429 8.96757 65.8026 8.96757 65.8707V66.3562C8.96757 66.4244 8.94202 66.484 8.89091 66.5351C8.8398 66.5862 8.78018 66.6117 8.71204 66.6117H4.79388V68.7582C4.79388 69.0052 4.81376 69.2125 4.85067 69.3772C4.88758 69.5418 4.96424 69.681 5.07497 69.786C5.1857 69.8939 5.34186 69.9706 5.54628 70.016C5.75071 70.0614 6.02327 70.087 6.36398 70.087H8.82845C8.92214 70.087 8.97041 70.1381 8.97041 70.2403V70.8905Z" fill="#717171"/>
<path id="Vector_9" d="M17.0936 64.2352C17.0936 64.2692 17.0879 64.2976 17.0822 64.3232L15.3588 70.402C15.2736 70.6916 15.1288 70.8847 14.9244 70.984C14.72 71.0806 14.4815 71.1317 14.2089 71.1317C13.9363 71.1317 13.6978 71.0834 13.4934 70.984C13.289 70.8875 13.1442 70.6916 13.059 70.402L11.3356 64.3232C11.3271 64.2976 11.3242 64.2692 11.3242 64.2352C11.3242 64.0903 11.3924 64.0194 11.5286 64.0194H12.2299C12.3407 64.0194 12.4202 64.1017 12.4713 64.2607L13.9392 69.8285C13.9817 69.9818 14.0187 70.0812 14.0527 70.1294C14.0868 70.1777 14.1379 70.2004 14.206 70.2004C14.2657 70.2004 14.3139 70.1777 14.3537 70.1294C14.3906 70.084 14.4332 69.9818 14.4758 69.8285L15.9437 64.2607C15.9948 64.0989 16.0743 64.0194 16.185 64.0194H16.8863C17.0254 64.0165 17.0936 64.0903 17.0936 64.2352Z" fill="#717171"/>
<path id="Vector_10" d="M24.7703 67.608C24.7703 67.7954 24.688 67.8891 24.529 67.8891H20.2474V68.0679C20.2474 68.826 20.395 69.3626 20.6931 69.6778C20.9913 69.9929 21.4342 70.1491 22.0219 70.1491C22.3967 70.1491 22.7942 70.1377 23.2172 70.1122C23.6403 70.0866 23.998 70.0526 24.2961 70.01H24.3614C24.4126 70.01 24.458 70.0213 24.5006 70.0469C24.5432 70.0724 24.5659 70.1179 24.5659 70.1888V70.6232C24.5659 70.7084 24.5488 70.7737 24.5148 70.822C24.4807 70.8703 24.4126 70.9015 24.3103 70.9185C23.9441 70.9867 23.5807 71.0406 23.2172 71.0775C22.8567 71.1144 22.4563 71.1343 22.0219 71.1343C21.6557 71.1343 21.2979 71.086 20.9487 70.9867C20.5995 70.8901 20.29 70.7226 20.0231 70.4898C19.7562 70.257 19.5376 69.9418 19.3729 69.55C19.2082 69.1582 19.123 68.6642 19.123 68.0679V66.918C19.123 65.9981 19.3644 65.2713 19.8499 64.7347C20.3354 64.198 21.0367 63.9312 21.9566 63.9312C22.4251 63.9312 22.8339 64.0021 23.1832 64.1413C23.5324 64.2832 23.8248 64.482 24.0576 64.7403C24.2905 65.0015 24.4693 65.3139 24.5886 65.6858C24.7078 66.0549 24.7675 66.4666 24.7675 66.918V67.608H24.7703ZM23.6318 66.918C23.6318 66.194 23.4926 65.6801 23.2172 65.3735C22.939 65.0668 22.5216 64.9135 21.9594 64.9135C21.4058 64.9135 20.9827 65.0754 20.6875 65.399C20.3922 65.7227 20.2474 66.2281 20.2474 66.918V67.0316H23.6318V66.918Z" fill="#717171"/>
<path id="Vector_11" d="M30.6085 64.6808C30.6085 64.8256 30.5205 64.8966 30.3416 64.8966C30.0435 64.8966 29.7567 64.9363 29.4785 65.0186C29.2002 65.101 28.9021 65.2373 28.5784 65.4332V70.7851C28.5784 70.8533 28.5529 70.9129 28.5018 70.964C28.4507 71.0151 28.3911 71.0407 28.3229 71.0407H27.6983C27.6301 71.0407 27.5733 71.0151 27.5251 70.964C27.4768 70.9129 27.4541 70.8533 27.4541 70.7851V64.2719C27.4541 64.2038 27.4768 64.1442 27.5251 64.0931C27.5705 64.0419 27.6301 64.0164 27.6983 64.0164H28.2974C28.3655 64.0164 28.4223 64.0419 28.4706 64.0931C28.516 64.1442 28.5415 64.2038 28.5415 64.2719V64.5388C28.8652 64.3174 29.1747 64.1612 29.4671 64.0675C29.7596 63.9738 30.052 63.9255 30.3416 63.9255C30.5205 63.9255 30.6085 64.0022 30.6085 64.1555V64.6808Z" fill="#717171"/>
<path id="Vector_12" d="M38.4258 64.2352C38.4258 64.2777 38.4201 64.3061 38.4145 64.3232L36.3077 71.6796C36.2055 72.0289 36.0976 72.3213 35.9812 72.5598C35.8677 72.7983 35.72 72.9914 35.5412 73.1418C35.3623 73.2895 35.1465 73.4002 34.8966 73.4684C34.644 73.5365 34.3373 73.5706 33.9711 73.5706C33.7922 73.5706 33.602 73.5592 33.4032 73.5394C33.2045 73.5166 33.0341 73.4911 32.8978 73.457C32.8212 73.44 32.7587 73.4173 32.7076 73.3917C32.6565 73.3662 32.6309 73.3207 32.6309 73.2497V72.7784C32.6309 72.6421 32.7104 72.574 32.8723 72.574H32.9092C33.054 72.591 33.2442 72.6081 33.477 72.6251C33.7098 72.6421 33.9001 72.6507 34.0449 72.6507C34.2237 72.6507 34.3799 72.6365 34.5162 72.6052C34.6525 72.574 34.7689 72.5201 34.8683 72.4406C34.9648 72.3582 35.05 72.2503 35.1238 72.1084C35.1948 71.9664 35.2572 71.7875 35.3083 71.5661L35.4361 71.0437H35.2572C35.1635 71.0437 35.0727 71.0351 34.9818 71.0181C34.8938 71.0011 34.8058 70.9613 34.7263 70.9017C34.644 70.8421 34.5701 70.7541 34.502 70.6348C34.4338 70.5156 34.3685 70.3594 34.3118 70.1606L32.6139 64.3232C32.6054 64.3061 32.6025 64.2777 32.6025 64.2352C32.6025 64.0903 32.6792 64.0194 32.8325 64.0194H33.5338C33.5849 64.0194 33.6303 64.0421 33.6673 64.0818C33.707 64.1244 33.7326 64.1698 33.7496 64.2238L35.2572 69.766C35.2913 69.8938 35.3282 69.9733 35.3708 70.0017C35.4134 70.0329 35.456 70.0471 35.4986 70.0471H35.703L37.2617 64.2096C37.2788 64.1585 37.3072 64.1131 37.3498 64.0761C37.3923 64.0392 37.4434 64.0194 37.5031 64.0194H38.2186C38.3577 64.0165 38.4258 64.0903 38.4258 64.2352Z" fill="#717171"/>
<path id="Vector_13" d="M44.6715 70.8505C44.6715 70.9697 44.5948 71.0407 44.4415 71.0663C44.3138 71.0833 44.1746 71.0975 44.0213 71.1117C43.868 71.1231 43.7317 71.1316 43.6125 71.1316C43.3143 71.1316 43.056 71.1089 42.8402 71.0606C42.6216 71.0152 42.4455 70.9272 42.3036 70.7994C42.1644 70.6716 42.0566 70.4984 41.9856 70.277C41.9118 70.0555 41.8777 69.7716 41.8777 69.4224V64.9647L40.6398 64.8228C40.4779 64.8057 40.3984 64.7291 40.3984 64.5928V64.2493C40.3984 64.0959 40.4779 64.0193 40.6398 64.0193H41.8777V62.7672C41.8777 62.6224 41.9543 62.5372 42.1077 62.5116L42.772 62.4094H42.809C42.8601 62.4094 42.9055 62.4293 42.9424 62.4662C42.9793 62.5031 42.9992 62.5571 42.9992 62.6252V64.0164H44.3791C44.4472 64.0164 44.5068 64.042 44.5579 64.0931C44.609 64.1442 44.6346 64.2038 44.6346 64.272V64.7064C44.6346 64.7745 44.609 64.8341 44.5579 64.8852C44.5068 64.9364 44.4472 64.9619 44.3791 64.9619H42.9992V69.4195C42.9992 69.7687 43.0503 69.9902 43.1525 70.0839C43.2547 70.1776 43.4336 70.2259 43.6891 70.2259H44.4046C44.5835 70.2259 44.6715 70.2855 44.6715 70.4047V70.8505Z" fill="#717171"/>
<path id="Vector_14" d="M52.3853 70.7883C52.3853 70.8565 52.3598 70.9161 52.3087 70.9672C52.2576 71.0183 52.198 71.0439 52.1298 71.0439H51.5165C51.4484 71.0439 51.3888 71.0183 51.3377 70.9672C51.2866 70.9161 51.261 70.8565 51.261 70.7883V66.5863C51.261 65.9474 51.1361 65.5102 50.8919 65.2717C50.6449 65.0332 50.3127 64.914 49.8953 64.914C49.7931 64.914 49.671 64.9196 49.5319 64.9338C49.3928 64.9452 49.2395 64.9679 49.0776 64.9991C48.9158 65.0304 48.7511 65.0673 48.5864 65.1127C48.4218 65.161 48.2684 65.2121 48.1322 65.2717V70.7883C48.1322 70.8565 48.1066 70.9161 48.0555 70.9672C48.0044 71.0183 47.9448 71.0439 47.8766 71.0439H47.252C47.1838 71.0439 47.1271 71.0183 47.0788 70.9672C47.0305 70.9161 47.0078 70.8565 47.0078 70.7883V61.6943C47.0078 61.6261 47.0305 61.5665 47.0788 61.5154C47.1242 61.4643 47.1838 61.4387 47.252 61.4387H47.8908C47.959 61.4387 48.0157 61.4643 48.064 61.5154C48.1094 61.5665 48.135 61.6261 48.135 61.6943V64.3262C48.4416 64.1899 48.7767 64.0906 49.1372 64.0253C49.4978 63.96 49.8158 63.9287 50.0884 63.9287C50.4291 63.9287 50.7386 63.9798 51.0197 64.0821C51.3007 64.1843 51.5421 64.3433 51.7465 64.5534C51.9509 64.7663 52.1071 65.0417 52.2178 65.3767C52.3286 65.7118 52.3825 66.115 52.3825 66.5834V70.7883H52.3853Z" fill="#717171"/>
<path id="Vector_15" d="M56.5626 62.6395C56.5626 62.7076 56.5371 62.7672 56.486 62.8183C56.4348 62.8695 56.3752 62.895 56.3071 62.895H55.6569C55.5888 62.895 55.5291 62.8695 55.478 62.8183C55.4269 62.7672 55.4014 62.7076 55.4014 62.6395V61.6174C55.4014 61.5492 55.4269 61.4896 55.478 61.4385C55.5291 61.3874 55.5888 61.3618 55.6569 61.3618H56.3071C56.3752 61.3618 56.4348 61.3874 56.486 61.4385C56.5371 61.4896 56.5626 61.5492 56.5626 61.6174V62.6395ZM56.5371 70.7881C56.5371 70.8562 56.5115 70.9159 56.4604 70.967C56.4093 71.0181 56.3497 71.0436 56.2815 71.0436H55.6683C55.6001 71.0436 55.5405 71.0181 55.4894 70.967C55.4383 70.9159 55.4127 70.8562 55.4127 70.7881V64.2749C55.4127 64.2067 55.4383 64.1471 55.4894 64.096C55.5405 64.0449 55.6001 64.0193 55.6683 64.0193H56.2815C56.3497 64.0193 56.4093 64.0449 56.4604 64.096C56.5115 64.1471 56.5371 64.2067 56.5371 64.2749V70.7881Z" fill="#717171"/>
<path id="Vector_16" d="M64.9528 70.7883C64.9528 70.8565 64.9273 70.9161 64.8762 70.9672C64.825 71.0183 64.7654 71.0439 64.6973 71.0439H64.084C64.0159 71.0439 63.9562 71.0183 63.9051 70.9672C63.854 70.9161 63.8285 70.8565 63.8285 70.7883V66.5862C63.8285 66.2626 63.8001 65.9928 63.7461 65.7742C63.6894 65.5584 63.607 65.3852 63.4906 65.2575C63.3742 65.1297 63.2294 65.0389 63.0505 64.9821C62.8716 64.9253 62.6615 64.8997 62.4259 64.8997C62.1533 64.8997 61.8722 64.948 61.5826 65.0417C61.293 65.1354 61.0006 65.2546 60.7025 65.3994V70.7883C60.7025 70.8565 60.6769 70.9161 60.6258 70.9672C60.5747 71.0183 60.5151 71.0439 60.4469 71.0439H59.8223C59.7542 71.0439 59.6974 71.0183 59.6491 70.9672C59.6008 70.9161 59.5781 70.8565 59.5781 70.7883V64.2751C59.5781 64.207 59.6008 64.1473 59.6491 64.0962C59.6945 64.0451 59.7542 64.0196 59.8223 64.0196H60.4611C60.5293 64.0196 60.5861 64.0451 60.6343 64.0962C60.6798 64.1473 60.7053 64.207 60.7053 64.2751V64.5164C61.063 64.3205 61.3952 64.1729 61.7019 64.0763C62.0085 63.9798 62.3521 63.9287 62.7354 63.9287C63.5105 63.9287 64.0755 64.1587 64.4276 64.6186C64.7796 65.0786 64.9585 65.7345 64.9585 66.5862V70.7883H64.9528Z" fill="#717171"/>
<path id="Vector_17" d="M73.6482 64.6302C73.6482 64.7153 73.6255 64.7721 73.5857 64.8033C73.5432 64.8346 73.4864 64.8573 73.4211 64.8743L72.9611 64.9652C73.0804 65.0844 73.1826 65.2463 73.2677 65.4507C73.3529 65.6551 73.3955 65.9305 73.3955 66.2797V66.382C73.3955 67.0889 73.1684 67.6284 72.7198 68.0032C72.2683 68.3779 71.55 68.5653 70.562 68.5653C70.2212 68.5653 69.9373 68.5426 69.7073 68.4944C69.4774 68.4461 69.2701 68.3865 69.0827 68.3098C68.8698 68.412 68.7647 68.5568 68.7647 68.7442C68.7647 68.8549 68.7931 68.9401 68.8527 68.9997C68.9124 69.0594 69.0146 69.1105 69.1594 69.1531L71.0617 69.6386C71.3768 69.7152 71.6806 69.8004 71.9759 69.8941C72.2712 69.9878 72.5324 70.1042 72.7624 70.2462C72.9923 70.3881 73.1741 70.5585 73.3103 70.7629C73.4466 70.9673 73.5148 71.2172 73.5148 71.5153V71.6175C73.5148 72.2308 73.2905 72.7135 72.8447 73.0684C72.3989 73.4233 71.6494 73.5993 70.6017 73.5993C69.5881 73.5993 68.8442 73.4176 68.3729 73.057C67.9016 72.6964 67.6631 72.1996 67.6631 71.5693V71.4528C67.6631 71.0951 67.7426 70.7771 67.9044 70.496C68.0663 70.2149 68.2536 69.9935 68.4666 69.8316L68.3786 69.7947C68.1741 69.701 68.0237 69.5591 67.9328 69.3717C67.8391 69.1843 67.7909 68.9941 67.7909 68.7982V68.7868C67.7909 68.6164 67.8334 68.4461 67.9186 68.2757C68.0038 68.1054 68.1344 67.9691 68.3133 67.8669C68.1174 67.6795 67.9697 67.4666 67.8732 67.2281C67.7738 66.9896 67.7255 66.7085 67.7255 66.3848V66.2826C67.7255 66.0015 67.771 65.7261 67.859 65.4535C67.947 65.181 68.1003 64.9396 68.319 64.7267C68.5347 64.5137 68.8243 64.3434 69.1878 64.2156C69.5483 64.0879 70.0083 64.0254 70.562 64.0254H73.3586C73.4353 64.0254 73.5034 64.0538 73.563 64.1077C73.6227 64.1645 73.651 64.2298 73.651 64.3065V64.6302H73.6482ZM72.3847 71.5153C72.3847 71.2683 72.2683 71.0781 72.0327 70.9418C71.797 70.8055 71.3967 70.6664 70.826 70.5216L69.3837 70.1525C69.1963 70.3143 69.0458 70.4903 68.9294 70.6749C68.8158 70.8623 68.7562 71.1207 68.7562 71.4528V71.5693C68.7562 71.7481 68.7846 71.91 68.8442 72.0548C68.9038 72.1996 69.0032 72.3217 69.1452 72.4182C69.2843 72.5147 69.4717 72.5914 69.7073 72.6482C69.9402 72.705 70.2383 72.7305 70.596 72.7305C70.9623 72.7305 71.2604 72.705 71.4904 72.6538C71.7204 72.6027 71.9021 72.5318 72.0327 72.4381C72.1633 72.3444 72.257 72.228 72.3081 72.0945C72.3592 71.9582 72.3847 71.8021 72.3847 71.6232V71.5153ZM72.2825 66.2797C72.2825 66.0924 72.257 65.9135 72.2059 65.7431C72.1548 65.5728 72.0668 65.428 71.939 65.3087C71.8112 65.1895 71.6352 65.0929 71.408 65.022C71.1837 64.951 70.8998 64.9141 70.5591 64.9141C70.2014 64.9141 69.9089 64.951 69.6846 65.0305C69.4603 65.1071 69.2843 65.2065 69.1622 65.3314C69.0373 65.4564 68.9521 65.6012 68.9067 65.7658C68.8584 65.9305 68.8357 66.1037 68.8357 66.2826V66.3848C68.8357 66.5296 68.8556 66.6772 68.901 66.8306C68.9436 66.9839 69.0259 67.1258 69.1508 67.2508C69.2729 67.3785 69.449 67.4836 69.6733 67.5631C69.8976 67.6454 70.1957 67.6852 70.562 67.6852C70.9027 67.6852 71.1866 67.6539 71.4109 67.5886C71.6352 67.5262 71.8141 67.4353 71.9418 67.3218C72.0696 67.2053 72.1604 67.0719 72.2087 66.9129C72.2598 66.7567 72.2854 66.5779 72.2854 66.382V66.2797H72.2825Z" fill="#717171"/>
<path id="Vector_18" d="M85.8868 64.2352C85.8868 64.2777 85.8811 64.3061 85.8754 64.3232L83.7687 71.6796C83.6665 72.0289 83.5586 72.3213 83.4422 72.5598C83.3286 72.7983 83.181 72.9914 83.0021 73.1418C82.8232 73.2895 82.6074 73.4002 82.3576 73.4684C82.1049 73.5365 81.7983 73.5706 81.432 73.5706C81.2531 73.5706 81.0629 73.5592 80.8641 73.5394C80.6654 73.5166 80.495 73.4911 80.3588 73.457C80.2821 73.44 80.2196 73.4173 80.1685 73.3917C80.1174 73.3662 80.0919 73.3207 80.0919 73.2497V72.7784C80.0919 72.6421 80.1714 72.574 80.3332 72.574H80.3701C80.5149 72.591 80.7052 72.6081 80.938 72.6251C81.1708 72.6421 81.361 72.6507 81.5058 72.6507C81.6847 72.6507 81.8408 72.6365 81.9771 72.6052C82.1134 72.574 82.2298 72.5201 82.3292 72.4406C82.4257 72.3582 82.5109 72.2503 82.5847 72.1084C82.6557 71.9664 82.7182 71.7875 82.7693 71.5661L82.897 71.0437H82.7182C82.6245 71.0437 82.5336 71.0351 82.4428 71.0181C82.3547 71.0011 82.2667 70.9613 82.1872 70.9017C82.1049 70.8421 82.0311 70.7541 81.9629 70.6348C81.8948 70.5156 81.8295 70.3594 81.7727 70.1606L80.0748 64.3232C80.0663 64.3061 80.0635 64.2777 80.0635 64.2352C80.0635 64.0903 80.1401 64.0194 80.2935 64.0194H80.9947C81.0459 64.0194 81.0913 64.0421 81.1282 64.0818C81.1679 64.1244 81.1935 64.1698 81.2105 64.2238L82.7182 69.766C82.7522 69.8938 82.7891 69.9733 82.8317 70.0017C82.8743 70.0329 82.9169 70.0471 82.9595 70.0471H83.1639L84.7227 64.2096C84.7397 64.1585 84.7681 64.1131 84.8107 64.0761C84.8533 64.0392 84.9044 64.0194 84.964 64.0194H85.6795C85.8186 64.0165 85.8868 64.0903 85.8868 64.2352Z" fill="#717171"/>
<path id="Vector_19" d="M93.5748 68.014C93.5748 68.4825 93.5152 68.9084 93.3959 69.2917C93.2767 69.675 93.0978 70.0015 92.8593 70.2741C92.6208 70.5467 92.3227 70.7568 91.9649 70.9072C91.6072 71.0577 91.1955 71.1315 90.727 71.1315C90.2586 71.1315 89.8469 71.0577 89.4948 70.9072C89.1427 70.7596 88.8446 70.5467 88.6061 70.2741C88.3676 70.0015 88.1887 69.675 88.0695 69.2917C87.9503 68.9084 87.8906 68.4825 87.8906 68.014V67.043C87.8906 66.5746 87.9503 66.1487 88.0695 65.7654C88.1887 65.3821 88.3676 65.0556 88.6061 64.783C88.8446 64.5104 89.1399 64.3003 89.4948 64.1498C89.8469 64.0022 90.2586 63.9255 90.727 63.9255C91.1955 63.9255 91.6072 63.9994 91.9649 64.1498C92.3227 64.3003 92.6208 64.5104 92.8593 64.783C93.0978 65.0556 93.2767 65.3821 93.3959 65.7654C93.5152 66.1487 93.5748 66.5746 93.5748 67.043V68.014ZM92.4504 67.0459C92.4504 66.39 92.3142 65.8704 92.0416 65.4871C91.769 65.1038 91.3318 64.9136 90.727 64.9136C90.1308 64.9136 89.6964 65.1038 89.4238 65.4814C89.1512 65.8591 89.015 66.3815 89.015 67.0459V68.0169C89.015 68.6728 89.1484 69.1923 89.4181 69.5756C89.685 69.9589 90.1223 70.1492 90.727 70.1492C91.3233 70.1492 91.7605 69.9589 92.0359 69.5813C92.3113 69.2037 92.4504 68.6813 92.4504 68.0169V67.0459Z" fill="#717171"/>
<path id="Vector_20" d="M101.608 70.7882C101.608 70.8563 101.585 70.916 101.537 70.9671C101.489 71.0182 101.432 71.0437 101.364 71.0437H100.725C100.657 71.0437 100.6 71.0182 100.552 70.9671C100.503 70.916 100.481 70.8563 100.481 70.7882V70.544C100.123 70.7399 99.7908 70.8876 99.4842 70.9841C99.1775 71.0806 98.834 71.1317 98.4507 71.1317C97.6755 71.1317 97.1105 70.9018 96.7585 70.4418C96.4064 69.9819 96.2275 69.326 96.2275 68.4742V64.2721C96.2275 64.204 96.2531 64.1444 96.3042 64.0933C96.3553 64.0422 96.4149 64.0166 96.4831 64.0166H97.0963C97.1645 64.0166 97.2241 64.0422 97.2752 64.0933C97.3263 64.1444 97.3519 64.204 97.3519 64.2721V68.4742C97.3519 68.7979 97.3803 69.0676 97.4342 69.2862C97.4882 69.502 97.5733 69.6752 97.6897 69.803C97.8033 69.9307 97.9481 70.0216 98.1242 70.0784C98.2973 70.1352 98.5103 70.1607 98.7573 70.1607C99.0299 70.1607 99.311 70.1153 99.6006 70.0216C99.8902 69.9279 100.183 69.8087 100.481 69.6639V64.275C100.481 64.2068 100.506 64.1472 100.557 64.0961C100.608 64.045 100.668 64.0194 100.736 64.0194H101.361C101.429 64.0194 101.486 64.045 101.534 64.0961C101.58 64.1472 101.605 64.2068 101.605 64.275V70.7882H101.608Z" fill="#717171"/>
<path id="Vector_21" d="M114.176 70.7883C114.176 70.8565 114.151 70.9161 114.1 70.9672C114.049 71.0183 113.989 71.0439 113.921 71.0439H113.308C113.24 71.0439 113.18 71.0183 113.129 70.9672C113.078 70.9161 113.052 70.8565 113.052 70.7883V66.5862C113.052 66.2626 113.024 65.9928 112.97 65.7742C112.913 65.5584 112.831 65.3852 112.714 65.2575C112.598 65.1297 112.453 65.0389 112.274 64.9821C112.095 64.9253 111.885 64.8997 111.65 64.8997C111.377 64.8997 111.096 64.948 110.806 65.0417C110.517 65.1354 110.224 65.2546 109.926 65.3994V70.7883C109.926 70.8565 109.901 70.9161 109.849 70.9672C109.798 71.0183 109.739 71.0439 109.671 71.0439H109.046C108.978 71.0439 108.921 71.0183 108.873 70.9672C108.824 70.9161 108.802 70.8565 108.802 70.7883V64.2751C108.802 64.207 108.824 64.1473 108.873 64.0962C108.918 64.0451 108.978 64.0196 109.046 64.0196H109.685C109.753 64.0196 109.81 64.0451 109.858 64.0962C109.903 64.1473 109.929 64.207 109.929 64.2751V64.5164C110.287 64.3205 110.619 64.1729 110.926 64.0763C111.232 63.9798 111.576 63.9287 111.959 63.9287C112.734 63.9287 113.299 64.1587 113.651 64.6186C114.003 65.0786 114.182 65.7345 114.182 66.5862V70.7883H114.176Z" fill="#717171"/>
<path id="Vector_22" d="M122.477 67.608C122.477 67.7954 122.395 67.8891 122.236 67.8891H117.957V68.0679C117.957 68.826 118.105 69.3626 118.403 69.6778C118.701 69.9929 119.144 70.1491 119.732 70.1491C120.107 70.1491 120.504 70.1377 120.927 70.1122C121.35 70.0866 121.708 70.0526 122.006 70.01H122.071C122.123 70.01 122.168 70.0213 122.211 70.0469C122.253 70.0724 122.276 70.1179 122.276 70.1888V70.6232C122.276 70.7084 122.259 70.7737 122.225 70.822C122.191 70.8703 122.123 70.9015 122.02 70.9185C121.654 70.9867 121.291 71.0406 120.927 71.0775C120.567 71.1144 120.166 71.1343 119.732 71.1343C119.366 71.1343 119.008 71.086 118.659 70.9867C118.309 70.8901 118 70.7226 117.733 70.4898C117.466 70.257 117.248 69.9418 117.083 69.55C116.918 69.1582 116.833 68.6642 116.833 68.0679V66.918C116.833 65.9981 117.074 65.2713 117.56 64.7347C118.045 64.198 118.747 63.9312 119.667 63.9312C120.135 63.9312 120.544 64.0021 120.893 64.1413C121.242 64.2832 121.535 64.482 121.768 64.7403C122 65.0015 122.179 65.3139 122.299 65.6858C122.418 66.0549 122.477 66.4666 122.477 66.918V67.608ZM121.342 66.918C121.342 66.194 121.203 65.6801 120.927 65.3735C120.649 65.0668 120.232 64.9135 119.669 64.9135C119.116 64.9135 118.693 65.0754 118.397 65.399C118.102 65.7227 117.957 66.2281 117.957 66.918V67.0316H121.342V66.918Z" fill="#717171"/>
<path id="Vector_23" d="M130.576 67.608C130.576 67.7954 130.494 67.8891 130.335 67.8891H126.056V68.0679C126.056 68.826 126.204 69.3626 126.502 69.6778C126.8 69.9929 127.243 70.1491 127.831 70.1491C128.205 70.1491 128.603 70.1377 129.026 70.1122C129.449 70.0866 129.807 70.0526 130.105 70.01H130.17C130.221 70.01 130.267 70.0213 130.309 70.0469C130.352 70.0724 130.374 70.1179 130.374 70.1888V70.6232C130.374 70.7084 130.357 70.7737 130.323 70.822C130.289 70.8703 130.221 70.9015 130.119 70.9185C129.753 70.9867 129.389 71.0406 129.026 71.0775C128.665 71.1144 128.265 71.1343 127.831 71.1343C127.464 71.1343 127.107 71.086 126.757 70.9867C126.408 70.8901 126.099 70.7226 125.832 70.4898C125.565 70.257 125.346 69.9418 125.181 69.55C125.017 69.1582 124.932 68.6642 124.932 68.0679V66.918C124.932 65.9981 125.173 65.2713 125.658 64.7347C126.144 64.198 126.845 63.9312 127.765 63.9312C128.234 63.9312 128.643 64.0021 128.992 64.1413C129.341 64.2832 129.633 64.482 129.866 64.7403C130.099 65.0015 130.278 65.3139 130.397 65.6858C130.516 66.0549 130.576 66.4666 130.576 66.918V67.608ZM129.44 66.918C129.44 66.194 129.301 65.6801 129.026 65.3735C128.748 65.0668 128.33 64.9135 127.768 64.9135C127.214 64.9135 126.791 65.0754 126.496 65.399C126.201 65.7227 126.056 66.2281 126.056 66.918V67.0316H129.44V66.918Z" fill="#717171"/>
<path id="Vector_24" d="M138.432 70.6208C138.432 70.706 138.418 70.7713 138.387 70.8195C138.356 70.8678 138.282 70.8991 138.163 70.9161C137.762 70.9927 137.368 71.0467 136.982 71.0808C136.593 71.1148 136.204 71.1319 135.812 71.1319C135.335 71.1319 134.923 71.058 134.574 70.9076C134.225 70.7599 133.935 70.547 133.705 70.2744C133.475 70.0018 133.305 69.6697 133.194 69.2778C133.083 68.886 133.029 68.4516 133.029 67.9746V67.0547C133.029 66.0496 133.259 65.2773 133.719 64.7351C134.179 64.1956 134.878 63.923 135.815 63.923C136.011 63.923 136.246 63.9344 136.524 63.9543C136.8 63.977 137.064 64.0082 137.311 64.0508V61.6744C137.311 61.6062 137.334 61.5494 137.382 61.5012C137.427 61.4529 137.487 61.4302 137.555 61.4302H138.205C138.273 61.4302 138.327 61.4529 138.37 61.5012C138.413 61.5494 138.435 61.6062 138.435 61.6744V70.6208H138.432ZM137.308 65.0019C137.095 64.9594 136.845 64.9338 136.556 64.9253C136.266 64.9168 136.019 64.9139 135.815 64.9139C135.499 64.9139 135.235 64.9622 135.022 65.0559C134.809 65.1496 134.639 65.2887 134.511 65.4704C134.384 65.655 134.293 65.8793 134.236 66.1462C134.179 66.413 134.154 66.7197 134.154 67.0604V67.9803C134.154 68.6788 134.273 69.2154 134.511 69.5902C134.75 69.9649 135.184 70.1523 135.815 70.1523C136.036 70.1523 136.286 70.1438 136.561 70.1268C136.837 70.1097 137.087 70.0927 137.308 70.0757V65.0019Z" fill="#717171"/>
<path id="Vector_25" d="M146.912 62.6395C146.912 62.7076 146.887 62.7672 146.836 62.8183C146.784 62.8695 146.725 62.895 146.657 62.895H146.007C145.938 62.895 145.879 62.8695 145.828 62.8183C145.777 62.7672 145.751 62.7076 145.751 62.6395V61.6174C145.751 61.5492 145.777 61.4896 145.828 61.4385C145.879 61.3874 145.938 61.3618 146.007 61.3618H146.657C146.725 61.3618 146.784 61.3874 146.836 61.4385C146.887 61.4896 146.912 61.5492 146.912 61.6174V62.6395ZM146.887 70.7881C146.887 70.8562 146.861 70.9159 146.81 70.967C146.759 71.0181 146.699 71.0436 146.631 71.0436H146.018C145.95 71.0436 145.89 71.0181 145.839 70.967C145.788 70.9159 145.762 70.8562 145.762 70.7881V64.2749C145.762 64.2067 145.788 64.1471 145.839 64.096C145.89 64.0449 145.95 64.0193 146.018 64.0193H146.631C146.699 64.0193 146.759 64.0449 146.81 64.096C146.861 64.1471 146.887 64.2067 146.887 64.2749V70.7881Z" fill="#717171"/>
<path id="Vector_26" d="M154.372 69.2807C154.372 69.6044 154.315 69.8826 154.198 70.1183C154.085 70.3539 153.923 70.5441 153.713 70.6918C153.503 70.8423 153.253 70.953 152.96 71.024C152.668 71.095 152.341 71.1319 151.984 71.1319C151.864 71.1319 151.723 71.129 151.555 71.1262C151.39 71.1233 151.214 71.112 151.033 71.095C150.848 71.0779 150.663 71.058 150.476 71.0382C150.289 71.0183 150.118 70.9842 149.965 70.9416C149.786 70.8991 149.698 70.8139 149.698 70.6861V70.2403C149.698 70.1807 149.718 70.1325 149.761 70.0984C149.803 70.0643 149.857 70.0473 149.925 70.0473H149.976C150.13 70.0643 150.297 70.0813 150.482 70.0984C150.663 70.1154 150.851 70.1296 151.038 70.1438C151.226 70.1552 151.399 70.1665 151.561 70.175C151.723 70.1836 151.862 70.1864 151.981 70.1864C152.398 70.1864 152.713 70.1211 152.926 69.9962C153.139 69.8684 153.244 69.6299 153.244 69.2807C153.244 69.0848 153.176 68.9144 153.04 68.7696C152.904 68.6248 152.654 68.4431 152.288 68.2216L150.999 67.455C150.607 67.2166 150.292 66.9553 150.053 66.6686C149.815 66.3847 149.695 66.0354 149.695 65.6266C149.695 65.2944 149.755 65.019 149.874 64.8032C149.993 64.5874 150.155 64.4114 150.36 64.2808C150.564 64.1502 150.805 64.0565 151.087 64.0054C151.368 63.9543 151.674 63.9287 152.006 63.9287C152.364 63.9287 152.711 63.9429 153.048 63.9741C153.383 64.0054 153.701 64.0451 154 64.0962C154.161 64.1218 154.241 64.207 154.241 64.3518V64.7748C154.241 64.9196 154.167 64.9906 154.022 64.9906H153.985C153.764 64.9735 153.469 64.9508 153.097 64.9253C152.725 64.8997 152.361 64.8884 152.004 64.8884C151.646 64.8884 151.359 64.931 151.14 65.0161C150.922 65.1013 150.814 65.3057 150.814 65.6294C150.814 65.8253 150.885 65.9928 151.033 66.1348C151.177 66.2739 151.399 66.4301 151.697 66.6004L152.96 67.3528C153.489 67.668 153.855 67.9746 154.059 68.2728C154.264 68.5709 154.372 68.9059 154.372 69.2807Z" fill="#717171"/>
<path id="Vector_27" d="M162.623 62.6395C162.623 62.7076 162.598 62.7672 162.547 62.8183C162.495 62.8695 162.436 62.895 162.368 62.895H161.717C161.649 62.895 161.59 62.8695 161.539 62.8183C161.487 62.7672 161.462 62.7076 161.462 62.6395V61.6174C161.462 61.5492 161.487 61.4896 161.539 61.4385C161.59 61.3874 161.649 61.3618 161.717 61.3618H162.368C162.436 61.3618 162.495 61.3874 162.547 61.4385C162.598 61.4896 162.623 61.5492 162.623 61.6174V62.6395ZM162.598 70.7881C162.598 70.8562 162.572 70.9159 162.521 70.967C162.47 71.0181 162.41 71.0436 162.342 71.0436H161.729C161.661 71.0436 161.601 71.0181 161.55 70.967C161.499 70.9159 161.473 70.8562 161.473 70.7881V64.2749C161.473 64.2067 161.499 64.1471 161.55 64.096C161.601 64.0449 161.661 64.0193 161.729 64.0193H162.342C162.41 64.0193 162.47 64.0449 162.521 64.096C162.572 64.1471 162.598 64.2067 162.598 64.2749V70.7881Z" fill="#717171"/>
<path id="Vector_28" d="M171.015 70.7883C171.015 70.8565 170.99 70.9161 170.939 70.9672C170.888 71.0183 170.828 71.0439 170.76 71.0439H170.147C170.078 71.0439 170.019 71.0183 169.968 70.9672C169.917 70.9161 169.891 70.8565 169.891 70.7883V66.5862C169.891 66.2626 169.863 65.9928 169.809 65.7742C169.752 65.5584 169.67 65.3852 169.553 65.2575C169.437 65.1297 169.292 65.0389 169.113 64.9821C168.934 64.9253 168.724 64.8997 168.488 64.8997C168.216 64.8997 167.935 64.948 167.645 65.0417C167.356 65.1354 167.063 65.2546 166.765 65.3994V70.7883C166.765 70.8565 166.739 70.9161 166.688 70.9672C166.637 71.0183 166.578 71.0439 166.509 71.0439H165.885C165.817 71.0439 165.76 71.0183 165.712 70.9672C165.663 70.9161 165.641 70.8565 165.641 70.7883V64.2751C165.641 64.207 165.663 64.1473 165.712 64.0962C165.757 64.0451 165.817 64.0196 165.885 64.0196H166.524C166.592 64.0196 166.649 64.0451 166.697 64.0962C166.742 64.1473 166.768 64.207 166.768 64.2751V64.5164C167.126 64.3205 167.458 64.1729 167.764 64.0763C168.071 63.9798 168.415 63.9287 168.798 63.9287C169.573 63.9287 170.138 64.1587 170.49 64.6186C170.842 65.0786 171.021 65.7345 171.021 66.5862V70.7883H171.015Z" fill="#717171"/>
<path id="Vector_29" d="M183.657 64.2352C183.657 64.2777 183.652 64.3061 183.646 64.3232L181.539 71.6796C181.437 72.0289 181.329 72.3213 181.213 72.5598C181.099 72.7983 180.951 72.9914 180.773 73.1418C180.594 73.2895 180.378 73.4002 180.128 73.4684C179.875 73.5365 179.569 73.5706 179.203 73.5706C179.024 73.5706 178.833 73.5592 178.635 73.5394C178.436 73.5166 178.266 73.4911 178.129 73.457C178.053 73.44 177.99 73.4173 177.939 73.3917C177.888 73.3662 177.862 73.3207 177.862 73.2497V72.7784C177.862 72.6421 177.942 72.574 178.104 72.574H178.141C178.285 72.591 178.476 72.6081 178.708 72.6251C178.941 72.6421 179.132 72.6507 179.276 72.6507C179.455 72.6507 179.611 72.6365 179.748 72.6052C179.884 72.574 180 72.5201 180.1 72.4406C180.196 72.3582 180.281 72.2503 180.355 72.1084C180.426 71.9664 180.489 71.7875 180.54 71.5661L180.668 71.0437H180.489C180.395 71.0437 180.304 71.0351 180.213 71.0181C180.125 71.0011 180.037 70.9613 179.958 70.9017C179.875 70.8421 179.802 70.7541 179.733 70.6348C179.665 70.5156 179.6 70.3594 179.543 70.1606L177.845 64.3232C177.837 64.3061 177.834 64.2777 177.834 64.2352C177.834 64.0903 177.911 64.0194 178.064 64.0194H178.765C178.816 64.0194 178.862 64.0421 178.899 64.0818C178.938 64.1244 178.964 64.1698 178.981 64.2238L180.489 69.766C180.523 69.8938 180.56 69.9733 180.602 70.0017C180.645 70.0329 180.687 70.0471 180.73 70.0471H180.934L182.493 64.2096C182.51 64.1585 182.539 64.1131 182.581 64.0761C182.624 64.0392 182.675 64.0194 182.735 64.0194H183.45C183.589 64.0165 183.657 64.0903 183.657 64.2352Z" fill="#717171"/>
<path id="Vector_30" d="M191.347 68.014C191.347 68.4825 191.288 68.9084 191.168 69.2917C191.049 69.675 190.87 70.0015 190.632 70.2741C190.393 70.5467 190.095 70.7568 189.737 70.9072C189.38 71.0577 188.968 71.1315 188.499 71.1315C188.031 71.1315 187.619 71.0577 187.267 70.9072C186.915 70.7596 186.617 70.5467 186.379 70.2741C186.14 70.0015 185.961 69.675 185.842 69.2917C185.723 68.9084 185.663 68.4825 185.663 68.014V67.043C185.663 66.5746 185.723 66.1487 185.842 65.7654C185.961 65.3821 186.14 65.0556 186.379 64.783C186.617 64.5104 186.912 64.3003 187.267 64.1498C187.619 64.0022 188.031 63.9255 188.499 63.9255C188.968 63.9255 189.38 63.9994 189.737 64.1498C190.095 64.3003 190.393 64.5104 190.632 64.783C190.87 65.0556 191.049 65.3821 191.168 65.7654C191.288 66.1487 191.347 66.5746 191.347 67.043V68.014ZM190.226 67.0459C190.226 66.39 190.089 65.8704 189.817 65.4871C189.544 65.1038 189.107 64.9136 188.502 64.9136C187.906 64.9136 187.472 65.1038 187.199 65.4814C186.927 65.8591 186.79 66.3815 186.79 67.0459V68.0169C186.79 68.6728 186.924 69.1923 187.193 69.5756C187.46 69.9589 187.898 70.1492 188.502 70.1492C189.099 70.1492 189.536 69.9589 189.811 69.5813C190.087 69.2037 190.226 68.6813 190.226 68.0169V67.0459Z" fill="#717171"/>
<path id="Vector_31" d="M199.382 70.7882C199.382 70.8563 199.36 70.916 199.311 70.9671C199.263 71.0182 199.206 71.0437 199.138 71.0437H198.499C198.431 71.0437 198.374 71.0182 198.326 70.9671C198.278 70.916 198.255 70.8563 198.255 70.7882V70.544C197.897 70.7399 197.565 70.8876 197.259 70.9841C196.952 71.0806 196.608 71.1317 196.225 71.1317C195.45 71.1317 194.885 70.9018 194.533 70.4418C194.181 69.9819 194.002 69.326 194.002 68.4742V64.2721C194.002 64.204 194.028 64.1444 194.079 64.0933C194.13 64.0422 194.189 64.0166 194.257 64.0166H194.871C194.939 64.0166 194.999 64.0422 195.05 64.0933C195.101 64.1444 195.126 64.204 195.126 64.2721V68.4742C195.126 68.7979 195.155 69.0676 195.209 69.2862C195.263 69.502 195.348 69.6752 195.464 69.803C195.578 69.9307 195.723 70.0216 195.899 70.0784C196.072 70.1352 196.285 70.1607 196.532 70.1607C196.804 70.1607 197.085 70.1153 197.375 70.0216C197.665 69.9279 197.957 69.8087 198.255 69.6639V64.275C198.255 64.2068 198.281 64.1472 198.332 64.0961C198.383 64.045 198.443 64.0194 198.511 64.0194H199.135C199.203 64.0194 199.26 64.045 199.308 64.0961C199.354 64.1472 199.379 64.2068 199.379 64.275V70.7882H199.382Z" fill="#717171"/>
<path id="Vector_32" d="M205.425 64.6808C205.425 64.8256 205.337 64.8966 205.158 64.8966C204.86 64.8966 204.573 64.9363 204.295 65.0186C204.017 65.101 203.719 65.2373 203.395 65.4332V70.7851C203.395 70.8533 203.369 70.9129 203.318 70.964C203.267 71.0151 203.207 71.0407 203.139 71.0407H202.515C202.447 71.0407 202.39 71.0151 202.341 70.964C202.293 70.9129 202.271 70.8533 202.271 70.7851V64.2719C202.271 64.2038 202.293 64.1442 202.341 64.0931C202.387 64.0419 202.447 64.0164 202.515 64.0164H203.114C203.182 64.0164 203.239 64.0419 203.287 64.0931C203.332 64.1442 203.358 64.2038 203.358 64.2719V64.5388C203.682 64.3174 203.991 64.1612 204.284 64.0675C204.576 63.9738 204.868 63.9255 205.158 63.9255C205.337 63.9255 205.425 64.0022 205.425 64.1555V64.6808Z" fill="#717171"/>
<path id="Vector_33" d="M217.468 70.7883C217.468 70.8565 217.443 70.9161 217.392 70.9672C217.341 71.0183 217.281 71.0439 217.213 71.0439H216.6C216.531 71.0439 216.472 71.0183 216.421 70.9672C216.37 70.9161 216.344 70.8565 216.344 70.7883V66.5863C216.344 65.9474 216.219 65.5102 215.975 65.2717C215.728 65.0332 215.396 64.914 214.978 64.914C214.876 64.914 214.754 64.9196 214.615 64.9338C214.476 64.9452 214.322 64.9679 214.161 64.9991C213.999 65.0304 213.834 65.0673 213.669 65.1127C213.505 65.161 213.351 65.2121 213.215 65.2717V70.7883C213.215 70.8565 213.19 70.9161 213.139 70.9672C213.087 71.0183 213.028 71.0439 212.96 71.0439H212.335C212.267 71.0439 212.21 71.0183 212.162 70.9672C212.114 70.9161 212.091 70.8565 212.091 70.7883V61.6943C212.091 61.6261 212.114 61.5665 212.162 61.5154C212.207 61.4643 212.267 61.4387 212.335 61.4387H212.974C213.042 61.4387 213.099 61.4643 213.147 61.5154C213.192 61.5665 213.218 61.6261 213.218 61.6943V64.3262C213.525 64.1899 213.86 64.0906 214.22 64.0253C214.581 63.96 214.899 63.9287 215.171 63.9287C215.512 63.9287 215.822 63.9798 216.103 64.0821C216.384 64.1843 216.625 64.3433 216.83 64.5534C217.034 64.7663 217.19 65.0417 217.301 65.3767C217.412 65.7118 217.466 66.115 217.466 66.5834V70.7883H217.468Z" fill="#717171"/>
<path id="Vector_34" d="M225.248 70.7879C225.248 70.8561 225.222 70.9157 225.171 70.9668C225.12 71.0179 225.061 71.0435 224.993 71.0435H224.405C224.337 71.0435 224.277 71.0179 224.226 70.9668C224.175 70.9157 224.149 70.8561 224.149 70.7879V70.5068C223.843 70.6857 223.527 70.8362 223.204 70.9554C222.88 71.0747 222.539 71.1343 222.182 71.1343C221.909 71.1343 221.648 71.1031 221.395 71.0378C221.142 70.9753 220.924 70.8617 220.731 70.6999C220.541 70.5381 220.387 70.3251 220.271 70.0611C220.154 69.797 220.098 69.4648 220.098 69.0645V68.9112C220.098 68.5705 220.152 68.2695 220.257 68.0111C220.362 67.7528 220.538 67.5342 220.779 67.361C221.02 67.1878 221.338 67.0572 221.73 66.972C222.122 66.8868 222.602 66.8442 223.173 66.8442H224.118V66.3332C224.118 65.7965 224.016 65.4218 223.811 65.2088C223.607 64.9959 223.255 64.8908 222.752 64.8908C222.335 64.8908 221.969 64.9022 221.654 64.922C221.338 64.9448 221.054 64.9675 220.799 64.993H220.734C220.674 64.993 220.62 64.9817 220.575 64.9533C220.526 64.9277 220.504 64.8738 220.504 64.7886V64.34C220.504 64.2037 220.592 64.1242 220.771 64.0987C221.035 64.0561 221.321 64.0163 221.634 63.9823C221.943 63.9482 222.318 63.9312 222.752 63.9312C223.638 63.9312 224.274 64.1441 224.663 64.57C225.049 64.9959 225.245 65.5836 225.245 66.3332V70.7879H225.248ZM224.124 67.6449H223.178C222.795 67.6449 222.477 67.6676 222.221 67.7159C221.966 67.7641 221.767 67.8351 221.622 67.9316C221.478 68.0282 221.375 68.1559 221.316 68.3149C221.256 68.4739 221.228 68.667 221.228 68.897V69.0503C221.228 69.5103 221.33 69.8197 221.534 69.9759C221.739 70.1349 222.028 70.2116 222.403 70.2116C222.701 70.2116 222.985 70.169 223.258 70.0838C223.53 69.9986 223.82 69.8708 224.127 69.7005V67.6449H224.124Z" fill="#717171"/>
<path id="Vector_35" d="M233.509 70.7883C233.509 70.8565 233.484 70.9161 233.433 70.9672C233.382 71.0183 233.322 71.0439 233.254 71.0439H232.641C232.573 71.0439 232.513 71.0183 232.462 70.9672C232.411 70.9161 232.385 70.8565 232.385 70.7883V66.5862C232.385 66.2626 232.357 65.9928 232.303 65.7742C232.246 65.5584 232.164 65.3852 232.047 65.2575C231.931 65.1297 231.786 65.0389 231.607 64.9821C231.428 64.9253 231.218 64.8997 230.983 64.8997C230.71 64.8997 230.429 64.948 230.139 65.0417C229.85 65.1354 229.557 65.2546 229.259 65.3994V70.7883C229.259 70.8565 229.234 70.9161 229.182 70.9672C229.131 71.0183 229.072 71.0439 229.004 71.0439H228.379C228.311 71.0439 228.254 71.0183 228.206 70.9672C228.157 70.9161 228.135 70.8565 228.135 70.7883V64.2751C228.135 64.207 228.157 64.1473 228.206 64.0962C228.251 64.0451 228.311 64.0196 228.379 64.0196H229.018C229.086 64.0196 229.143 64.0451 229.191 64.0962C229.236 64.1473 229.262 64.207 229.262 64.2751V64.5164C229.62 64.3205 229.952 64.1729 230.259 64.0763C230.565 63.9798 230.909 63.9287 231.292 63.9287C232.067 63.9287 232.632 64.1587 232.984 64.6186C233.336 65.0786 233.515 65.7345 233.515 66.5862V70.7883H233.509Z" fill="#717171"/>
<path id="Vector_36" d="M241.57 70.6208C241.57 70.706 241.556 70.7713 241.525 70.8195C241.493 70.8678 241.42 70.8991 241.3 70.9161C240.9 70.9927 240.505 71.0467 240.119 71.0808C239.73 71.1148 239.341 71.1319 238.949 71.1319C238.472 71.1319 238.061 71.058 237.712 70.9076C237.362 70.7599 237.073 70.547 236.843 70.2744C236.613 70.0018 236.442 69.6697 236.332 69.2778C236.221 68.886 236.167 68.4516 236.167 67.9746V67.0547C236.167 66.0496 236.397 65.2773 236.857 64.7351C237.317 64.1956 238.015 63.923 238.952 63.923C239.148 63.923 239.384 63.9344 239.662 63.9543C239.938 63.977 240.202 64.0082 240.449 64.0508V61.6744C240.449 61.6062 240.471 61.5494 240.52 61.5012C240.565 61.4529 240.625 61.4302 240.693 61.4302H241.343C241.411 61.4302 241.465 61.4529 241.508 61.5012C241.55 61.5494 241.573 61.6062 241.573 61.6744V70.6208H241.57ZM240.446 65.0019C240.233 64.9594 239.983 64.9338 239.693 64.9253C239.404 64.9168 239.157 64.9139 238.952 64.9139C238.637 64.9139 238.373 64.9622 238.16 65.0559C237.947 65.1496 237.777 65.2887 237.649 65.4704C237.521 65.655 237.43 65.8793 237.374 66.1462C237.317 66.413 237.291 66.7197 237.291 67.0604V67.9803C237.291 68.6788 237.411 69.2154 237.649 69.5902C237.888 69.9649 238.322 70.1523 238.952 70.1523C239.174 70.1523 239.424 70.1438 239.699 70.1268C239.974 70.1097 240.224 70.0927 240.446 70.0757V65.0019Z" fill="#717171"/>
<path id="Vector_37" d="M248.901 69.2807C248.901 69.6044 248.844 69.8826 248.728 70.1183C248.614 70.3539 248.452 70.5441 248.242 70.6918C248.032 70.8423 247.782 70.953 247.49 71.024C247.197 71.095 246.871 71.1319 246.513 71.1319C246.394 71.1319 246.252 71.129 246.084 71.1262C245.92 71.1233 245.744 71.112 245.562 71.095C245.377 71.0779 245.193 71.058 245.005 71.0382C244.818 71.0183 244.648 70.9842 244.494 70.9416C244.315 70.8991 244.227 70.8139 244.227 70.6861V70.2403C244.227 70.1807 244.247 70.1325 244.29 70.0984C244.332 70.0643 244.386 70.0473 244.455 70.0473H244.506C244.659 70.0643 244.827 70.0813 245.011 70.0984C245.193 70.1154 245.38 70.1296 245.568 70.1438C245.755 70.1552 245.928 70.1665 246.09 70.175C246.252 70.1836 246.391 70.1864 246.51 70.1864C246.928 70.1864 247.243 70.1211 247.456 69.9962C247.669 69.8684 247.774 69.6299 247.774 69.2807C247.774 69.0848 247.706 68.9144 247.569 68.7696C247.433 68.6248 247.183 68.4431 246.817 68.2216L245.528 67.455C245.136 67.2166 244.821 66.9553 244.582 66.6686C244.344 66.3847 244.225 66.0354 244.225 65.6266C244.225 65.2944 244.284 65.019 244.403 64.8032C244.523 64.5874 244.685 64.4114 244.889 64.2808C245.093 64.1502 245.335 64.0565 245.616 64.0054C245.897 63.9543 246.204 63.9287 246.536 63.9287C246.893 63.9287 247.24 63.9429 247.578 63.9741C247.913 64.0054 248.231 64.0451 248.529 64.0962C248.691 64.1218 248.77 64.207 248.77 64.3518V64.7748C248.77 64.9196 248.696 64.9906 248.552 64.9906H248.515C248.293 64.9735 247.998 64.9508 247.626 64.9253C247.254 64.8997 246.891 64.8884 246.533 64.8884C246.175 64.8884 245.888 64.931 245.67 65.0161C245.451 65.1013 245.343 65.3057 245.343 65.6294C245.343 65.8253 245.414 65.9928 245.562 66.1348C245.707 66.2739 245.928 66.4301 246.226 66.6004L247.49 67.3528C248.018 67.668 248.384 67.9746 248.589 68.2728C248.793 68.5709 248.901 68.9059 248.901 69.2807Z" fill="#717171"/>
</g>
</g>
</g>
</svg>
